<?xml version="1.0" standalone="no"?>
<!DOCTYPE svg PUBLIC "-//W3C//DTD SVG 20010904//EN"
 "http://www.w3.org/TR/2001/REC-SVG-20010904/DTD/svg10.dtd">
<svg version="1.0" xmlns="http://www.w3.org/2000/svg"
 width="600.000000pt" height="600.000000pt" viewBox="0 0 600.000000 600.000000"
 preserveAspectRatio="xMidYMid meet">
<metadata>
Created by potrace 1.11, written by Peter Selinger 2001-2013
</metadata>
<g transform="translate(0.000000,600.000000) scale(0.100000,-0.100000)"
fill="#000000" stroke="none">
<path d="M2833 5354 c-5 -13 -7 -13 -14 -2 -6 9 -9 9 -9 1 0 -8 -13 -11 -35
-9 -19 1 -37 -2 -39 -8 -2 -6 -5 -5 -5 3 -1 11 -6 10 -23 -5 -12 -10 -18 -14
-15 -7 4 6 3 14 -3 18 -5 3 -10 2 -10 -4 0 -6 -7 -7 -17 -4 -12 5 -14 3 -8 -8
8 -12 6 -12 -8 0 -9 7 -17 9 -17 4 0 -5 -12 -10 -27 -11 -16 0 -37 -3 -48 -6
-11 -2 -35 -5 -53 -5 -19 -1 -31 -5 -27 -11 4 -6 -1 -7 -11 -3 -13 5 -15 3 -9
-8 8 -12 6 -12 -8 0 -12 9 -17 10 -17 2 0 -7 -5 -9 -10 -6 -6 4 -18 1 -27 -7
-11 -8 -14 -9 -10 -1 6 9 -3 8 -28 -2 -19 -9 -35 -12 -35 -9 0 4 -6 2 -13 -4
-7 -6 -28 -12 -45 -14 -18 -1 -32 -5 -32 -9 0 -4 -12 -9 -27 -11 -16 -2 -27
-8 -26 -14 1 -5 -12 -9 -28 -8 -16 1 -29 -2 -29 -7 0 -5 -3 -8 -7 -8 -5 1 -11
0 -15 -1 -13 -4 -27 -7 -39 -9 -5 0 -8 -5 -5 -10 3 -4 -6 -7 -19 -5 -14 1 -23
-2 -19 -7 5 -8 -10 -13 -30 -10 -5 1 -20 -8 -34 -21 -14 -13 -22 -16 -18 -8 4
8 0 6 -8 -4 -9 -11 -16 -16 -16 -12 0 5 -8 2 -17 -5 -14 -12 -16 -12 -9 1 4 9
2 8 -7 -2 -8 -10 -17 -15 -20 -11 -4 3 -9 -2 -13 -11 -3 -9 -10 -13 -16 -10
-5 3 -18 -2 -29 -12 -10 -9 -19 -13 -19 -8 0 5 -5 1 -11 -9 -6 -9 -14 -15 -18
-12 -5 2 -14 -2 -21 -10 -7 -8 -20 -15 -29 -15 -9 0 -24 -8 -33 -17 -38 -39
-61 -58 -54 -43 4 8 1 7 -8 -4 -8 -10 -19 -15 -25 -12 -5 4 -15 -2 -20 -13 -6
-11 -20 -23 -31 -26 -11 -4 -17 -11 -14 -17 5 -7 2 -9 -7 -6 -14 5 -51 -26
-43 -36 2 -3 1 -4 -2 -1 -11 8 -44 -15 -44 -30 0 -8 -6 -15 -14 -15 -8 0 -17
-7 -20 -16 -4 -9 -9 -14 -12 -11 -3 3 -14 -2 -24 -11 -10 -9 -26 -23 -35 -30
-8 -7 -12 -18 -9 -24 4 -6 2 -8 -4 -4 -6 3 -14 0 -19 -7 -4 -8 -18 -19 -30
-26 -13 -6 -22 -15 -20 -20 1 -4 -26 -35 -61 -70 -34 -34 -60 -66 -57 -71 4
-6 -1 -7 -11 -3 -12 5 -16 2 -12 -8 4 -14 -26 -52 -35 -43 -3 3 -7 -7 -11 -21
-4 -14 -11 -25 -17 -25 -6 0 -7 -5 -3 -12 5 -8 2 -9 -10 -5 -10 4 -15 3 -11
-3 3 -6 1 -10 -4 -10 -6 0 -11 -6 -11 -13 0 -7 -9 -23 -20 -35 -11 -12 -21
-25 -23 -29 -1 -5 -6 -7 -10 -5 -5 1 -6 -2 -2 -8 3 -5 1 -10 -5 -10 -6 0 -8
-4 -5 -10 3 -5 1 -10 -5 -10 -6 0 -8 -5 -5 -10 3 -6 -1 -13 -9 -16 -9 -3 -16
-14 -16 -24 0 -10 -7 -23 -15 -30 -9 -7 -14 -19 -11 -27 3 -8 2 -12 -3 -9 -8
6 -23 -17 -26 -39 0 -5 -7 -9 -15 -7 -11 2 -11 0 -1 -11 9 -12 8 -16 -4 -21
-9 -3 -13 -10 -10 -16 3 -5 1 -10 -5 -10 -6 0 -8 -4 -5 -10 3 -5 1 -10 -5 -10
-6 0 -8 -4 -5 -10 3 -5 1 -10 -5 -10 -6 0 -8 -4 -5 -10 3 -5 1 -10 -5 -10 -6
0 -9 -4 -5 -9 3 -5 1 -12 -5 -16 -5 -3 -10 -15 -10 -26 0 -10 -5 -19 -11 -19
-6 0 -9 -9 -6 -20 3 -11 1 -18 -4 -14 -8 5 -13 -9 -10 -28 0 -5 -4 -8 -10 -8
-5 0 -8 -4 -4 -9 3 -5 1 -12 -4 -15 -5 -4 -8 -17 -7 -30 2 -16 -1 -23 -9 -20
-9 4 -12 -4 -10 -25 1 -17 -1 -28 -6 -25 -9 5 -11 -3 -12 -43 0 -13 -4 -23 -9
-23 -5 0 -7 -4 -3 -9 3 -5 1 -12 -4 -15 -5 -4 -8 -17 -6 -31 1 -14 -2 -25 -8
-25 -6 0 -7 -3 -4 -7 4 -3 2 -12 -4 -20 -6 -7 -8 -13 -5 -13 4 0 2 -9 -4 -20
-7 -14 -7 -20 0 -20 5 0 10 -5 10 -11 0 -5 -4 -7 -10 -4 -10 6 -12 -3 -13 -67
0 -28 -4 -38 -16 -38 -10 0 -12 -3 -6 -8 12 -8 18 -55 7 -48 -4 2 -7 -20 -7
-50 1 -31 -3 -58 -8 -61 -5 -3 -3 -9 4 -14 12 -7 12 -9 0 -9 -11 0 -11 -3 -1
-15 10 -12 10 -15 0 -15 -9 0 -9 -4 1 -17 8 -10 9 -14 2 -10 -6 4 -14 3 -18
-3 -3 -5 -1 -10 4 -10 13 0 10 -22 -4 -32 -6 -5 -5 -8 3 -8 10 0 10 -5 1 -22
-10 -18 -9 -20 7 -14 17 7 17 6 0 -13 -12 -13 -14 -21 -6 -26 6 -4 10 -14 8
-23 -1 -10 2 -23 6 -31 7 -11 5 -13 -9 -7 -15 5 -16 4 -5 -9 7 -8 10 -28 8
-45 -3 -16 -1 -30 4 -30 5 0 6 -5 3 -10 -4 -6 -1 -18 7 -27 10 -14 10 -15 0
-9 -9 6 -12 3 -10 -10 2 -11 7 -22 12 -26 6 -4 4 -14 -5 -24 -8 -10 -9 -15 -2
-11 7 5 12 1 12 -10 2 -70 6 -93 14 -93 5 0 3 -8 -4 -17 -10 -11 -10 -14 -1
-9 12 7 17 -18 14 -71 0 -13 5 -23 12 -23 9 0 13 -11 11 -30 -1 -16 1 -30 5
-30 3 0 7 -8 8 -17 7 -72 -1 -100 -19 -73 -7 11 -11 12 -17 3 -5 -8 -13 -9
-22 -3 -9 6 -20 4 -29 -3 -12 -10 -13 -9 -6 3 8 13 7 13 -8 1 -9 -7 -17 -9
-17 -3 0 12 -32 10 -42 -3 -5 -6 -11 -5 -17 4 -7 11 -9 11 -14 0 -4 -11 -6
-11 -6 -1 -1 10 -6 10 -21 2 -11 -6 -20 -7 -20 -2 0 10 -30 9 -48 -2 -7 -4
-10 -12 -7 -17 4 -5 2 -9 -2 -9 -5 0 -9 -9 -9 -20 0 -11 3 -20 6 -20 3 0 5
-18 5 -40 0 -22 -4 -40 -8 -40 -4 0 -3 -10 4 -21 8 -15 8 -19 0 -15 -8 5 -8 0
-1 -18 7 -19 6 -26 -3 -26 -8 0 -7 -4 3 -10 10 -6 11 -10 3 -10 -7 0 -13 -5
-13 -11 0 -5 3 -8 8 -6 4 3 7 -6 7 -19 0 -13 -4 -24 -10 -24 -5 0 -3 -5 5 -10
10 -6 11 -10 3 -10 -7 0 -13 -5 -13 -11 0 -5 3 -8 8 -6 4 3 7 -6 7 -19 0 -13
-4 -24 -10 -24 -5 0 -3 -5 5 -10 10 -6 11 -10 3 -10 -7 0 -13 -5 -13 -11 0 -5
3 -8 8 -6 4 3 7 -6 7 -19 0 -13 -4 -24 -10 -24 -5 0 -3 -5 5 -10 8 -5 10 -10
4 -10 -8 0 -9 -11 -4 -35 5 -21 4 -35 -2 -35 -5 0 -6 -5 -3 -11 8 -13 12 -139
5 -139 -3 0 -6 -9 -6 -20 0 -11 5 -20 11 -20 5 0 3 -5 -5 -10 -9 -6 -11 -10
-3 -10 7 0 10 -7 7 -15 -4 -8 -1 -15 5 -15 6 0 11 4 11 8 0 10 30 9 48 -2 7
-4 12 -2 12 4 0 8 6 8 20 0 14 -7 20 -7 20 0 0 5 5 10 11 10 5 0 8 -4 5 -8 -3
-5 1 -9 9 -9 8 0 15 4 15 9 0 5 9 4 20 -2 14 -7 20 -7 20 0 0 5 5 10 11 10 5
0 8 -4 5 -8 -3 -5 1 -9 9 -9 8 0 15 4 15 9 0 5 9 4 19 -2 14 -7 21 -6 24 3 4
9 8 8 16 -3 10 -13 12 -13 21 0 9 13 10 13 10 0 0 -9 3 -11 8 -5 8 12 82 14
82 3 0 -5 5 -8 11 -8 5 0 7 6 3 12 -5 9 -2 9 9 -1 9 -7 17 -9 17 -4 0 5 21 7
50 3 43 -6 50 -4 45 9 -4 11 -1 10 15 -4 15 -14 20 -15 20 -4 0 12 2 12 9 0 7
-11 9 -11 14 0 4 11 6 11 6 1 1 -9 6 -10 20 -2 14 7 21 6 24 -3 4 -9 6 -9 6 1
1 9 6 10 20 2 14 -7 21 -6 24 3 4 8 6 8 6 0 1 -6 9 -9 19 -6 13 3 22 -4 30
-22 7 -14 17 -23 22 -20 6 3 10 -1 10 -10 0 -8 7 -18 16 -22 8 -3 13 -12 10
-20 -3 -8 -2 -12 2 -9 4 2 16 -2 27 -10 10 -8 15 -14 11 -14 -5 0 13 -20 38
-45 26 -25 52 -45 57 -45 6 0 7 -4 4 -10 -3 -5 1 -10 10 -10 8 0 18 -7 21 -15
3 -8 14 -17 25 -20 11 -4 17 -11 14 -16 -4 -5 0 -9 7 -9 8 0 20 -9 28 -20 8
-11 20 -20 26 -20 7 0 15 -7 18 -16 4 -9 9 -14 12 -11 3 3 20 -8 36 -24 17
-16 37 -29 45 -29 8 0 11 -5 8 -10 -3 -5 1 -10 9 -10 9 0 16 -4 16 -10 0 -5 7
-10 16 -10 8 0 12 -4 9 -10 -3 -6 1 -7 9 -4 9 4 18 -1 22 -10 3 -9 10 -13 15
-11 5 3 18 -6 31 -20 12 -14 32 -25 44 -25 12 0 25 -7 28 -16 3 -8 10 -12 16
-9 5 3 10 1 10 -5 0 -6 4 -9 9 -6 5 3 14 -1 21 -9 7 -8 19 -15 26 -15 8 0 14
-4 14 -10 0 -5 3 -9 8 -9 24 4 42 -3 42 -16 0 -9 6 -12 15 -9 8 4 15 1 15 -5
0 -6 7 -8 15 -5 8 4 15 1 15 -6 0 -6 5 -8 10 -5 5 3 10 1 10 -6 0 -7 3 -9 6
-6 9 9 46 -12 40 -22 -3 -4 1 -8 9 -8 8 0 12 4 9 9 -10 15 14 8 32 -10 10 -9
18 -15 18 -13 1 3 12 1 26 -3 14 -5 28 -8 33 -7 4 1 7 -4 7 -10 0 -5 4 -7 10
-4 6 3 10 2 10 -3 0 -9 7 -10 55 -13 14 -1 25 -6 25 -11 0 -5 5 -6 10 -3 6 3
10 0 10 -7 0 -9 3 -9 10 2 7 11 10 11 10 2 0 -7 5 -10 10 -7 6 3 10 1 10 -4 0
-6 5 -11 11 -11 5 0 7 6 3 13 -6 9 -4 9 7 1 25 -18 71 -35 63 -23 -4 7 3 6 17
-2 13 -7 35 -13 49 -13 14 -1 31 -5 38 -9 7 -5 12 -4 12 3 0 7 6 6 15 -3 8 -9
24 -13 35 -10 11 3 26 0 33 -6 8 -6 17 -8 20 -4 4 3 14 0 24 -8 15 -12 16 -12
10 6 -7 20 -7 20 8 1 8 -11 15 -14 15 -8 0 9 6 10 18 4 9 -4 32 -8 50 -7 17 1
32 -4 32 -9 0 -6 5 -4 10 4 8 12 10 12 10 1 0 -10 3 -11 14 -2 11 9 16 9 21 0
6 -8 10 -7 16 2 5 8 9 9 9 4 0 -6 11 -12 26 -13 18 -1 23 2 18 11 -6 9 -4 9 7
1 8 -7 29 -11 46 -9 18 1 31 -1 28 -5 -2 -3 2 -7 10 -7 8 0 12 4 10 8 -3 4 2
10 11 13 8 3 13 2 10 -3 -3 -5 1 -12 10 -15 8 -3 12 -2 9 4 -3 6 -1 11 4 11 6
1 17 2 24 3 6 1 20 -5 30 -13 16 -14 17 -13 11 5 -6 15 -4 17 6 7 7 -7 21 -9
34 -4 11 4 40 6 64 6 23 0 42 4 42 10 0 5 5 3 10 -5 8 -12 10 -12 10 5 0 16 2
17 9 6 8 -13 12 -13 27 0 15 12 17 12 9 0 -6 -11 -4 -13 11 -7 10 5 29 9 41
10 13 1 28 7 34 13 8 8 20 9 35 3 13 -5 24 -6 24 -1 0 5 6 9 13 8 38 -1 68 4
63 11 -3 5 12 8 34 8 21 -1 38 3 37 8 -1 6 9 11 23 12 53 2 61 4 56 13 -4 5 3
7 14 4 11 -3 20 0 20 6 0 6 5 11 11 11 5 0 7 -4 4 -10 -3 -6 1 -7 9 -4 9 3 16
11 16 16 0 6 7 8 15 4 8 -3 15 -1 15 5 0 6 4 8 9 4 5 -3 13 0 16 6 4 5 13 8
21 5 8 -3 14 -1 14 5 0 6 5 7 10 4 6 -3 10 -1 10 5 0 7 7 10 15 6 8 -3 15 -1
15 5 0 6 4 8 9 4 5 -3 17 2 25 11 12 11 16 12 16 2 0 -11 2 -11 9 0 4 7 17 15
27 16 10 2 18 9 16 17 -2 10 0 10 11 0 12 -9 16 -8 21 4 3 9 10 13 16 10 5 -3
10 -2 10 2 0 8 74 44 87 42 3 0 10 6 15 15 5 9 18 16 28 16 11 0 20 5 20 11 0
6 7 8 16 5 8 -3 13 -2 11 2 -3 4 1 13 9 20 8 7 14 10 14 6 0 -3 7 -1 15 6 8 7
15 9 15 4 0 -4 6 0 13 11 8 10 19 15 26 11 6 -4 10 -4 9 1 -2 4 1 9 6 10 5 0
13 8 18 17 5 9 16 16 23 16 8 0 15 5 15 12 0 6 3 8 7 5 3 -4 16 4 28 18 13 13
26 21 29 18 3 -4 6 2 6 13 0 14 2 16 9 5 6 -9 11 -10 15 -2 4 6 4 11 -1 11 -4
0 9 11 30 25 20 14 37 30 37 35 0 5 7 7 15 4 10 -4 15 0 15 11 0 11 5 15 16
11 8 -3 13 -2 10 2 -7 11 30 42 39 34 4 -4 6 -2 5 3 -1 6 -2 17 -1 25 1 13 2
13 11 0 8 -13 10 -12 10 3 0 10 10 22 23 27 12 5 18 9 13 9 -5 1 -3 8 4 16 7
8 16 12 21 9 5 -3 8 -1 7 4 -2 6 15 27 37 48 22 20 31 31 20 23 -19 -13 -19
-13 -6 4 8 10 20 16 28 13 8 -3 12 -2 8 3 -7 13 5 42 16 35 5 -3 9 -1 9 3 0 5
16 10 37 11 20 2 40 5 44 7 4 3 10 -1 12 -7 4 -10 8 -9 16 2 10 13 11 13 11 0
0 -9 3 -11 8 -5 8 12 82 14 82 3 0 -5 5 -8 11 -8 5 0 7 6 3 13 -5 8 -2 8 9 -2
9 -7 17 -10 17 -5 0 12 73 11 83 -1 4 -6 11 -4 17 5 9 13 10 13 10 0 0 -9 3
-11 8 -5 8 12 82 14 82 3 0 -5 5 -8 11 -8 5 0 7 5 3 11 -4 7 1 7 16 -1 21 -11
22 -10 16 6 -6 18 -5 18 9 0 11 -14 15 -16 15 -5 0 12 2 12 10 -1 9 -13 10
-13 10 0 0 13 1 13 10 0 9 -13 10 -13 10 0 0 13 1 13 10 0 7 -11 10 -11 10 -2
0 10 5 10 20 2 15 -8 20 -8 20 2 0 9 3 9 10 -2 9 -13 10 -13 10 0 0 13 1 13
10 0 9 -13 10 -13 10 0 0 13 1 13 10 0 9 -13 10 -13 10 0 0 13 1 13 10 0 5 -8
10 -10 10 -4 0 8 11 9 35 4 34 -8 38 -4 34 26 0 4 5 11 13 15 7 5 8 9 3 9 -12
0 -13 60 -2 77 5 7 4 13 -1 13 -5 0 -9 7 -9 15 0 8 5 15 11 15 7 0 7 3 1 8
-12 8 -14 142 -2 142 4 0 3 8 -2 18 -7 13 -6 23 1 30 8 8 8 12 2 12 -6 0 -11
7 -11 15 0 8 5 15 11 15 7 0 8 3 1 8 -14 9 -13 95 0 104 7 5 7 8 0 8 -14 0
-14 70 -1 70 7 0 8 3 1 8 -14 10 -14 65 -1 74 7 5 7 8 1 8 -12 0 -15 70 -3 70
4 0 8 5 8 11 0 5 -4 7 -10 4 -5 -3 -10 -1 -10 5 0 7 -7 10 -15 6 -8 -3 -15 -1
-15 5 0 6 -7 6 -20 -1 -15 -8 -20 -8 -20 1 0 8 -5 7 -17 -2 -15 -12 -16 -12
-8 1 8 13 7 13 -8 1 -14 -11 -17 -11 -17 0 0 11 -2 11 -10 -1 -5 -8 -10 -10
-10 -3 0 11 -71 10 -91 -2 -5 -4 -9 -1 -9 5 0 8 -6 8 -20 0 -15 -8 -20 -8 -20
1 0 8 -4 8 -15 -1 -11 -9 -15 -9 -15 -1 0 7 -5 9 -10 6 -12 -7 -4 37 12 69 7
14 7 16 -2 11 -7 -4 -5 4 4 17 9 14 13 28 9 32 -4 4 -1 11 7 16 13 9 13 10 0
10 -12 0 -12 2 -2 9 8 4 14 30 15 58 1 28 5 49 10 46 8 -5 8 -2 11 42 1 17 6
36 10 44 6 10 5 12 -2 7 -14 -8 -5 20 12 43 8 11 8 13 -1 7 -7 -4 -13 -2 -13
3 0 6 3 11 8 11 4 0 7 39 7 86 0 47 4 88 8 91 4 3 3 11 -3 18 -8 10 -8 19 -1
33 6 11 8 22 5 25 -3 3 -8 61 -11 129 -5 156 -5 148 -17 148 -6 0 -6 4 2 12 8
8 8 17 1 30 -5 10 -7 23 -4 28 3 5 1 12 -5 15 -8 5 -7 12 2 23 10 12 10 14 1
8 -9 -5 -13 0 -14 16 -1 13 -3 34 -6 48 -2 14 -5 33 -6 43 -1 9 -4 17 -8 17
-4 0 -6 14 -5 30 1 19 -2 29 -9 26 -6 -2 -11 4 -11 14 0 10 4 16 8 14 4 -3 5
2 2 10 -3 9 -10 16 -16 16 -5 0 -6 5 -3 10 3 6 2 10 -4 10 -5 0 -8 8 -7 18 2
9 -4 28 -13 42 -9 14 -11 21 -4 17 9 -6 11 -3 7 7 -3 9 -10 16 -16 16 -5 0 -6
5 -3 10 3 6 1 10 -4 10 -6 0 -10 3 -10 8 4 24 -2 52 -11 47 -6 -3 -7 1 -4 9 3
9 2 16 -3 16 -5 0 -10 7 -11 15 -1 8 -3 22 -4 30 -1 8 -7 16 -13 19 -7 2 -11
16 -10 30 2 15 -2 24 -8 23 -7 -1 -11 4 -9 11 1 6 -2 12 -8 12 -6 0 -10 3 -9
8 2 15 -14 52 -22 52 -5 0 -9 9 -9 20 0 11 -5 20 -12 20 -6 0 -9 3 -5 6 3 4
-1 13 -9 21 -8 8 -12 19 -9 24 4 5 -1 9 -9 9 -9 0 -16 7 -16 15 0 8 -4 15 -10
15 -5 0 -10 5 -10 11 0 5 6 7 13 4 6 -3 2 2 -10 11 -13 9 -23 26 -23 37 0 11
-3 17 -7 14 -4 -4 -15 10 -24 30 -10 21 -18 34 -19 30 0 -4 -6 -2 -14 5 -8 7
-12 16 -10 20 3 4 -4 11 -13 17 -10 5 -17 12 -16 15 5 13 -10 36 -23 36 -8 0
-14 9 -14 21 0 11 -4 18 -8 15 -10 -6 -52 47 -52 65 0 7 -3 10 -6 7 -6 -7 -49
35 -64 63 -6 11 -15 17 -21 14 -5 -4 -9 0 -9 7 0 8 -9 20 -20 28 -11 8 -20 21
-20 30 0 13 -1 13 -10 0 -9 -13 -10 -13 -11 0 -1 8 -1 19 0 23 1 5 -3 6 -8 3
-5 -3 -25 10 -44 29 -19 19 -39 35 -44 35 -4 0 -14 9 -21 20 -7 11 -19 20 -28
20 -8 0 -12 5 -9 10 3 6 -1 10 -10 10 -9 0 -13 5 -10 10 4 6 3 10 -2 9 -14 -4
-43 13 -38 21 3 4 -17 18 -44 31 -29 15 -47 29 -44 37 3 8 0 10 -10 7 -8 -4
-21 1 -30 9 -9 9 -20 16 -26 16 -6 0 -11 5 -11 11 0 6 -7 8 -15 5 -10 -4 -19
2 -24 17 -5 12 -11 21 -15 20 -13 -6 -25 -3 -38 10 -7 6 -26 17 -43 23 -16 6
-29 15 -28 21 1 6 -5 10 -15 9 -9 -2 -23 3 -31 11 -7 8 -20 12 -27 9 -7 -3
-17 1 -21 9 -5 8 -19 16 -33 18 -13 2 -26 9 -28 15 -2 7 -7 10 -12 7 -5 -3
-25 4 -44 16 -20 11 -36 18 -36 13 0 -4 -10 1 -22 12 -13 12 -18 13 -13 4 8
-13 6 -13 -8 -1 -9 7 -24 11 -32 7 -9 -3 -13 -2 -10 3 3 5 1 12 -5 16 -5 3
-10 0 -10 -7 0 -11 -2 -11 -9 0 -4 7 -14 14 -22 15 -8 2 -20 6 -27 11 -7 4
-16 5 -19 2 -3 -3 -18 1 -34 10 -16 8 -31 14 -34 14 -28 -1 -35 1 -31 9 4 5
-3 7 -14 4 -11 -3 -28 1 -37 8 -15 12 -16 12 -8 -1 7 -13 6 -13 -7 -2 -9 7
-20 12 -24 11 -5 -1 -11 0 -14 1 -7 3 -59 9 -87 11 -13 1 -23 4 -23 8 0 3 -21
7 -47 9 -26 1 -59 5 -73 8 -14 3 -50 6 -80 8 -31 1 -61 6 -68 10 -7 4 -12 4
-12 -1 0 -12 -67 -8 -84 6 -10 9 -16 9 -21 1 -4 -6 -13 -9 -21 -6 -8 3 -14 2
-14 -3 0 -6 -32 -7 -50 -1 -3 1 -27 1 -54 0 -32 -1 -46 2 -41 9 3 6 4 11 0 11
-3 0 -8 -7 -12 -16z m260 -129 c34 1 57 -3 57 -9 0 -6 5 -4 10 4 9 13 10 13
10 0 0 -13 1 -13 10 0 5 9 10 10 10 3 0 -7 11 -9 30 -7 20 4 30 1 30 -8 0 -9
3 -9 10 2 5 8 10 10 10 5 0 -6 19 -10 43 -10 23 1 57 -7 75 -17 19 -10 31 -14
27 -8 -4 6 3 9 17 6 13 -2 22 -8 21 -13 -1 -5 15 -8 34 -6 20 1 42 -2 49 -8 7
-6 18 -8 24 -4 5 3 10 2 10 -3 0 -5 7 -9 15 -10 8 -1 22 -3 30 -4 8 -1 15 -5
15 -10 0 -4 5 -8 11 -8 5 0 7 6 3 13 -4 6 5 1 19 -12 15 -14 27 -19 27 -12 0
8 12 4 32 -10 17 -13 28 -16 23 -8 -7 11 -6 12 7 2 8 -7 19 -9 23 -5 5 4 5 1
1 -5 -5 -9 0 -13 16 -13 13 0 32 -7 42 -15 10 -8 23 -12 27 -9 5 3 9 0 9 -6 0
-6 5 -8 10 -5 6 3 10 1 10 -5 0 -6 4 -9 9 -6 5 4 11 2 13 -4 2 -6 14 -12 27
-15 14 -2 28 -10 33 -17 4 -7 8 -8 8 -3 0 6 4 4 9 -3 4 -7 17 -14 29 -15 11 0
18 -5 16 -9 -3 -4 2 -8 10 -8 8 0 19 -7 24 -16 5 -9 11 -16 13 -15 13 2 49
-13 49 -20 0 -5 7 -9 15 -9 8 0 15 -4 15 -10 0 -5 7 -10 15 -10 8 0 25 -11 38
-24 14 -14 28 -22 31 -19 3 4 6 -1 6 -10 0 -9 6 -16 13 -14 6 1 11 -3 10 -10
-2 -7 4 -10 12 -7 8 4 18 -1 21 -10 3 -9 21 -23 40 -32 19 -9 31 -20 28 -25
-3 -5 2 -9 11 -9 9 0 13 -4 10 -10 -3 -5 0 -10 7 -10 8 0 29 -18 47 -40 18
-22 39 -40 47 -40 13 0 18 -12 15 -32 0 -5 4 -8 10 -8 17 0 90 -81 83 -92 -4
-7 -2 -8 4 -4 7 4 12 2 12 -4 0 -6 5 -8 12 -4 8 5 9 2 5 -10 -4 -10 -3 -15 3
-11 6 3 10 1 10 -5 0 -6 4 -8 10 -5 5 3 7 0 4 -9 -3 -9 3 -19 16 -26 12 -6 19
-14 16 -17 -2 -3 6 -16 20 -30 13 -13 24 -28 24 -32 0 -14 37 -51 44 -44 4 4
4 0 0 -10 -3 -10 -1 -17 6 -17 6 0 8 -4 5 -10 -3 -5 1 -10 10 -10 9 0 14 -4
11 -9 -8 -13 4 -42 15 -35 5 3 12 -8 15 -25 4 -17 10 -28 15 -25 8 5 14 -17
10 -38 0 -5 3 -8 9 -8 5 0 10 -7 10 -15 0 -8 5 -15 12 -15 6 0 8 -3 5 -7 -4
-3 1 -12 11 -20 9 -8 11 -12 5 -8 -7 3 -13 1 -13 -4 0 -6 6 -11 14 -11 10 0
13 -7 11 -20 -2 -11 0 -18 6 -15 8 5 14 -15 10 -37 0 -5 3 -8 9 -8 5 0 10 -7
10 -15 0 -8 4 -15 10 -15 5 0 7 -7 4 -15 -4 -8 -2 -15 4 -15 5 0 9 -8 8 -17 0
-10 4 -17 9 -16 6 1 10 -10 9 -25 0 -15 5 -33 13 -40 7 -8 10 -18 7 -24 -4 -6
-2 -13 5 -17 6 -4 12 -19 13 -34 1 -15 7 -27 12 -27 5 0 7 -3 3 -6 -3 -4 0
-22 8 -41 10 -24 11 -32 2 -27 -7 4 -4 -2 6 -13 10 -11 17 -24 16 -29 -1 -5 1
-17 6 -28 5 -12 3 -21 -6 -27 -12 -7 -11 -9 2 -9 11 0 15 -9 14 -35 -1 -20 2
-38 7 -41 5 -3 3 -13 -4 -22 -11 -13 -11 -14 1 -7 11 6 13 3 9 -13 -4 -12 -3
-20 2 -17 10 6 21 -21 12 -29 -10 -11 -11 -36 -1 -36 6 0 5 -9 -2 -21 -8 -15
-8 -19 0 -15 15 10 14 -7 -1 -23 -9 -9 -9 -12 -1 -7 18 10 21 -27 3 -42 -13
-10 -13 -11 0 -7 13 4 15 -15 15 -139 0 -79 -3 -148 -7 -152 -4 -4 -4 -12 -1
-18 12 -19 12 -36 0 -36 -7 0 -5 -5 3 -10 8 -5 10 -10 4 -10 -7 0 -14 -9 -17
-21 -4 -15 -2 -19 9 -15 13 5 13 3 0 -16 -14 -19 -14 -23 2 -35 12 -9 13 -12
2 -8 -11 4 -16 -3 -16 -25 -1 -16 -5 -37 -9 -47 -5 -10 -9 -31 -11 -48 -9
-100 -13 -120 -22 -123 -6 -2 -8 -10 -5 -18 3 -8 0 -14 -7 -14 -10 0 -10 -3 0
-15 10 -12 10 -15 0 -15 -8 0 -10 -8 -7 -21 4 -14 2 -19 -8 -16 -9 4 -11 -1
-8 -14 4 -15 2 -18 -11 -13 -9 3 -16 2 -16 -3 0 -13 -33 -12 -42 1 -6 8 -11 6
-18 -4 -9 -13 -11 -13 -20 0 -9 13 -10 13 -10 0 0 -13 -1 -13 -10 0 -9 13 -10
13 -10 0 0 -13 -1 -13 -10 0 -9 13 -10 13 -10 0 0 -13 -1 -13 -10 0 -9 13 -10
13 -10 0 0 -13 -1 -13 -10 0 -9 13 -10 13 -10 0 0 -13 -1 -13 -10 0 -9 13 -10
13 -10 0 0 -13 -1 -13 -10 0 -9 13 -10 13 -10 0 0 -13 -1 -13 -10 0 -9 13 -10
13 -10 0 0 -13 -1 -13 -10 0 -9 13 -10 13 -10 0 0 -13 -1 -13 -10 0 -6 9 -13
11 -17 5 -5 -5 -15 -10 -23 -10 -8 0 -19 5 -23 10 -6 7 -10 6 -13 -2 -4 -8
-13 -9 -27 -5 -28 9 -48 9 -66 -2 -11 -7 -12 -6 -6 5 8 12 6 12 -8 0 -14 -11
-17 -11 -18 0 0 12 -1 12 -6 0 -5 -11 -7 -11 -14 0 -8 12 -11 11 -20 -1 -8
-11 -12 -12 -16 -3 -3 9 -10 10 -24 3 -14 -8 -19 -7 -19 2 0 9 -3 9 -10 -2 -9
-13 -10 -13 -10 0 0 13 -1 13 -10 0 -9 -13 -10 -13 -10 0 0 13 -1 13 -10 0 -9
-13 -10 -13 -10 0 0 13 -1 13 -10 0 -9 -13 -10 -13 -10 0 0 13 -1 13 -10 0 -9
-13 -10 -13 -10 0 0 13 -1 13 -10 0 -9 -13 -10 -13 -10 0 0 13 -1 13 -10 0 -8
-12 -10 -12 -10 -1 0 11 -3 11 -16 0 -13 -10 -17 -10 -25 2 -7 12 -9 12 -9 -1
0 -13 -1 -13 -11 0 -8 11 -12 12 -16 3 -2 -7 -9 -13 -14 -13 -6 0 -8 4 -5 8 6
10 -45 9 -63 -2 -8 -5 -17 -3 -23 5 -7 10 -11 11 -14 2 -4 -8 -13 -9 -27 -4
-27 9 -38 8 -56 -3 -8 -5 -16 -4 -22 5 -8 12 -11 12 -19 -1 -8 -12 -12 -13
-19 -2 -4 8 -12 14 -16 14 -4 0 -12 -6 -16 -14 -5 -7 -9 -8 -9 -2 0 6 -7 11
-15 11 -8 0 -15 -5 -15 -11 0 -6 -4 -5 -9 2 -4 8 -12 14 -16 14 -4 0 -12 -6
-16 -14 -5 -7 -9 -8 -9 -2 0 6 -10 10 -22 9 -13 -1 -29 -3 -36 -4 -7 0 -10 -7
-7 -13 4 -7 1 -6 -7 3 -13 16 -54 19 -76 5 -7 -4 -12 -2 -12 5 0 8 -4 8 -16
-2 -13 -10 -17 -10 -26 2 -7 10 -11 11 -14 2 -4 -8 -13 -9 -27 -4 -27 9 -38 8
-56 -3 -8 -5 -16 -4 -22 5 -8 12 -11 12 -19 -1 -6 -10 -10 -11 -10 -3 0 9 -7
10 -24 3 -17 -6 -26 -5 -30 3 -5 9 -7 9 -12 -1 -3 -6 -9 -10 -13 -8 -17 11
-61 14 -66 5 -4 -5 -13 -5 -25 1 -13 7 -20 6 -23 -3 -4 -9 -7 -9 -14 0 -5 7
-14 9 -23 3 -8 -5 -22 -4 -33 2 -14 7 -17 7 -13 -1 4 -6 3 -11 -3 -11 -5 0
-12 6 -14 13 -4 9 -8 8 -16 -3 -7 -10 -11 -11 -11 -3 0 9 -7 10 -24 3 -17 -6
-26 -5 -30 3 -3 9 -6 9 -13 0 -5 -8 -14 -9 -23 -3 -9 6 -20 4 -29 -3 -12 -10
-13 -9 -6 3 8 13 7 13 -8 1 -14 -11 -17 -11 -17 0 0 11 -2 11 -10 -1 -5 -8
-10 -10 -10 -4 0 10 -47 12 -70 3 -15 -5 -37 -4 -52 4 -12 5 -18 4 -18 -5 0
-8 -3 -9 -8 -3 -4 6 -20 10 -37 10 -16 0 -33 -4 -37 -10 -5 -6 -11 -6 -16 2
-5 8 -13 9 -22 3 -8 -5 -22 -4 -33 2 -14 7 -17 7 -13 -1 4 -6 2 -11 -3 -11 -6
0 -11 4 -11 9 0 10 -51 8 -70 -4 -9 -6 -11 -4 -5 6 8 12 6 12 -8 0 -14 -11
-17 -11 -18 0 0 12 -1 12 -6 0 -5 -11 -7 -11 -14 0 -8 12 -11 11 -19 -1 -9
-13 -11 -13 -20 0 -9 13 -10 13 -10 0 0 -13 -1 -13 -10 0 -6 9 -13 11 -17 5
-5 -5 -15 -10 -23 -10 -8 0 -19 5 -23 10 -6 7 -10 6 -13 -2 -4 -8 -13 -9 -30
-3 -20 8 -24 6 -25 -8 0 -14 -2 -14 -7 -2 -7 15 -42 24 -42 10 0 -11 -33 -7
-42 5 -5 6 -12 4 -19 -5 -9 -12 -12 -13 -16 -1 -5 11 -7 11 -14 0 -7 -12 -9
-11 -9 1 0 13 -1 13 -10 0 -9 -13 -10 -13 -10 0 0 13 -1 13 -10 0 -9 -13 -10
-13 -10 0 0 13 -1 13 -10 0 -9 -13 -10 -13 -10 0 0 13 -1 13 -10 0 -9 -13 -10
-13 -10 0 0 13 -1 13 -10 0 -9 -13 -10 -13 -10 0 0 13 -1 13 -10 0 -9 -13 -10
-13 -10 0 0 13 -1 13 -10 0 -9 -13 -10 -13 -10 0 0 13 -1 13 -10 0 -8 -12 -10
-12 -10 -1 0 11 -3 11 -16 0 -13 -10 -17 -10 -25 2 -7 12 -9 12 -9 -1 0 -11
-2 -12 -8 -3 -10 15 -54 5 -46 -11 3 -6 -1 -3 -9 7 -14 17 -33 25 -24 10 3 -5
-6 -8 -19 -8 -13 0 -24 3 -24 6 0 8 -58 4 -67 -4 -3 -4 -15 -2 -26 4 -14 8
-18 8 -13 0 4 -6 3 -11 -3 -11 -5 0 -12 6 -14 13 -4 9 -8 8 -16 -3 -9 -12 -13
-13 -20 -2 -4 8 -12 14 -16 14 -4 0 -12 -6 -16 -14 -5 -7 -9 -8 -9 -2 0 6 -7
11 -15 11 -8 0 -15 -5 -15 -11 0 -6 -4 -5 -9 2 -4 8 -12 14 -16 14 -4 0 -12
-6 -16 -14 -5 -7 -9 -8 -9 -3 0 6 -9 11 -20 12 -12 1 -18 -3 -14 -9 4 -7 0 -7
-12 -1 -16 8 -66 10 -84 3 -3 -1 -13 -1 -24 0 -12 1 -16 -3 -11 -12 3 -7 -1
-4 -9 6 -12 15 -16 16 -16 5 0 -10 -2 -11 -8 -2 -5 8 -13 9 -22 3 -8 -5 -22
-4 -33 2 -15 7 -18 7 -12 -2 6 -9 3 -9 -13 -1 -15 8 -22 8 -26 -2 -5 -9 -7 -9
-12 0 -4 9 -11 10 -25 3 -14 -8 -19 -7 -20 2 0 10 -2 10 -6 -1 -5 -11 -7 -11
-14 0 -6 9 -12 10 -16 4 -5 -5 -15 -10 -23 -10 -8 0 -19 5 -23 10 -6 6 -10 6
-14 -3 -2 -6 -8 -10 -13 -7 -16 10 -70 12 -76 4 -3 -5 -14 -4 -26 2 -15 8 -19
8 -14 0 4 -6 3 -11 -3 -11 -5 0 -12 6 -15 13 -5 9 -7 9 -12 0 -4 -8 -13 -9
-30 -3 -17 7 -24 6 -24 -3 -1 -22 -29 37 -30 61 0 13 -4 21 -9 18 -5 -3 -9 6
-10 19 -3 46 -4 55 -10 55 -3 0 -7 11 -8 25 -1 14 -3 36 -4 50 -1 14 -5 25 -8
25 -4 0 -7 10 -8 23 0 12 -4 31 -8 41 -6 13 -5 17 2 13 7 -5 9 0 6 13 -3 11
-9 17 -14 14 -5 -3 -6 2 -3 10 3 9 11 13 18 10 6 -3 4 0 -5 8 -11 9 -16 29
-15 70 1 31 -2 54 -5 52 -4 -2 -6 7 -5 21 0 14 5 25 10 25 6 0 1 7 -10 16 -19
15 -19 16 1 10 20 -6 20 -6 1 9 -11 8 -14 15 -8 15 9 0 10 5 3 18 -7 13 -6 23
2 31 9 9 8 14 -3 21 -10 6 -11 10 -3 10 9 0 10 7 3 25 -6 16 -6 26 1 31 8 4 7
9 -2 15 -8 5 -9 9 -4 9 6 0 11 16 12 35 1 25 -2 34 -10 29 -7 -3 -3 2 7 10 11
9 15 16 10 16 -5 0 -10 9 -10 20 0 11 3 20 7 20 4 0 5 9 2 20 -3 11 0 26 6 33
6 8 8 16 5 20 -3 3 0 16 7 29 11 21 11 22 -5 9 -14 -12 -16 -12 -10 3 3 9 9
16 13 16 3 0 7 12 7 28 2 61 4 73 13 68 4 -3 7 9 5 26 -2 17 2 38 9 46 10 13
9 14 -3 7 -11 -6 -10 -3 2 11 14 16 15 23 6 32 -9 9 -9 12 1 12 7 0 9 5 6 10
-3 6 -1 10 4 10 6 0 11 5 11 11 0 5 -6 7 -12 4 -7 -4 -4 1 6 9 15 12 16 16 5
17 -10 0 -10 2 -1 6 6 2 12 14 12 24 0 11 4 18 8 15 5 -3 8 11 7 30 -2 24 2
34 10 30 8 -3 11 4 9 20 -1 14 5 28 14 34 14 8 14 9 2 10 -9 0 -11 3 -5 8 6 4
16 18 23 31 11 19 11 22 0 15 -7 -4 -5 2 5 13 9 11 14 23 10 26 -3 4 -1 7 5 7
7 0 11 3 10 8 -2 11 13 45 31 66 13 16 13 18 1 12 -9 -5 -8 -2 2 7 10 8 15 17
11 20 -3 4 -1 7 5 7 6 0 9 9 7 20 -2 11 0 18 6 15 5 -4 9 0 9 8 0 8 7 20 15
27 8 6 14 15 13 18 -2 20 3 32 12 27 9 -5 12 1 9 21 0 3 8 12 18 21 11 9 12
12 3 8 -8 -4 -6 1 4 9 11 9 16 16 12 16 -4 0 0 7 8 16 9 8 14 20 10 25 -3 5
-2 9 3 8 4 -1 15 -1 23 0 12 1 12 3 2 10 -11 7 -11 11 2 24 9 8 20 17 26 19 6
2 12 13 13 25 1 18 4 20 16 10 12 -9 13 -9 7 1 -4 7 -2 12 4 12 6 0 9 4 6 9
-4 5 8 23 25 40 17 17 28 31 24 31 -3 0 0 6 7 14 7 8 16 12 21 9 4 -2 7 3 7
11 0 9 5 16 10 16 6 0 10 7 10 16 0 9 5 12 12 8 8 -5 9 -2 5 10 -4 10 -3 15 3
11 6 -3 10 -1 10 5 0 6 4 8 10 5 5 -3 10 1 10 9 0 8 5 18 12 22 7 4 8 3 4 -4
-4 -7 -5 -12 -1 -12 3 0 10 11 15 25 5 14 16 25 25 25 8 0 15 7 15 16 0 8 5
12 10 9 6 -3 10 1 10 9 0 9 4 16 9 16 8 0 49 33 89 72 13 13 28 24 33 24 5 1
13 2 19 3 5 0 9 6 7 13 -1 7 4 12 11 13 7 0 16 5 20 11 4 6 17 14 29 18 15 5
20 12 16 24 -6 15 -5 16 12 2 10 -8 16 -10 12 -3 -5 8 1 15 18 19 13 3 23 10
20 14 -6 10 24 22 36 14 5 -3 8 0 7 8 -2 8 6 13 18 12 14 0 20 4 17 13 -3 8 2
13 14 13 11 0 30 9 43 20 13 11 29 20 37 20 7 0 13 5 13 11 0 5 4 8 9 4 5 -3
16 2 24 10 12 11 17 12 20 2 3 -7 6 -4 6 6 1 10 6 15 11 12 6 -3 10 -2 10 4 0
5 9 8 20 6 11 -2 20 0 20 6 0 5 6 8 13 6 6 -1 11 3 10 9 -1 8 6 10 19 6 14 -3
19 -1 14 6 -5 8 -2 10 8 6 9 -3 16 -1 16 6 0 6 4 9 8 6 11 -7 84 19 76 27 -4
3 3 5 15 2 12 -2 21 1 21 8 0 7 4 6 10 -3 5 -8 10 -10 10 -4 0 11 53 28 78 25
6 -1 12 3 12 10 0 6 8 9 20 6 11 -3 20 0 20 5 0 6 8 4 17 -3 9 -8 14 -9 10 -3
-4 7 0 15 9 18 10 4 13 2 8 -7 -6 -8 -3 -8 9 1 9 8 21 11 27 7 5 -3 10 0 10 7
0 9 3 9 10 -2 6 -9 10 -10 10 -3 0 6 9 10 20 8 11 -2 20 0 20 5 0 4 8 7 18 6
9 -2 29 0 43 4 16 5 31 4 38 -3 8 -8 11 -7 11 2 0 8 6 11 16 7 8 -3 12 -2 9 4
-3 6 -1 10 4 10 6 0 11 -4 11 -8 0 -4 9 -8 20 -8 11 0 20 3 20 6 0 4 36 6 81
6 44 -1 83 3 86 8 3 4 8 4 12 -1 3 -5 32 -9 64 -8z m1362 -345 c3 -6 -1 -7 -9
-4 -18 7 -21 14 -7 14 6 0 13 -4 16 -10z m-2581 -3321 c-4 -7 4 -10 22 -9 16
1 31 1 34 0 27 -10 41 -7 36 7 -5 13 -4 13 8 4 8 -6 18 -11 22 -10 5 1 11 0
14 -1 26 -10 41 -7 36 7 -5 13 -4 13 8 4 8 -6 18 -11 22 -10 5 1 11 0 14 -1
26 -10 41 -7 36 7 -5 13 -4 13 8 4 8 -6 18 -11 22 -10 5 1 11 0 14 -1 26 -10
41 -7 36 7 -5 13 -4 13 8 4 8 -6 18 -11 22 -10 5 1 11 0 14 -1 26 -10 41 -7
36 7 -5 13 -4 13 8 4 8 -6 18 -11 22 -10 5 1 11 0 14 -1 26 -10 41 -7 36 7 -5
13 -4 13 8 4 8 -6 18 -11 22 -10 5 1 11 0 14 -1 26 -10 41 -7 36 7 -5 13 -4
13 8 4 8 -6 18 -11 22 -10 5 1 11 0 14 -1 26 -10 41 -7 36 7 -5 13 -4 14 9 3
9 -7 18 -10 21 -8 3 3 21 2 40 -2 21 -5 34 -4 34 2 0 7 4 7 13 0 7 -6 18 -7
25 -3 12 7 76 6 98 -3 6 -2 16 -1 23 4 7 4 28 4 47 0 21 -5 34 -4 34 2 0 7 4
7 13 0 7 -6 18 -7 25 -3 12 7 76 6 98 -3 6 -2 16 -1 23 4 7 4 27 4 44 1 23 -5
36 -3 45 8 12 14 13 14 9 1 -3 -11 3 -15 23 -15 16 0 26 3 23 8 -2 4 1 7 6 7
6 0 11 -6 12 -12 0 -9 2 -9 5 -2 3 8 16 9 39 4 22 -5 35 -4 35 2 0 7 4 7 13 0
7 -6 18 -7 25 -3 12 7 76 6 98 -3 6 -2 16 -1 23 4 7 4 28 4 47 0 21 -5 34 -4
34 2 0 7 4 7 13 0 7 -6 18 -7 25 -3 12 7 76 6 98 -3 6 -2 16 -1 23 4 7 4 28 4
47 0 21 -5 34 -4 34 2 0 7 4 7 13 0 7 -6 18 -8 24 -4 10 6 68 8 68 2 0 -1 8
-3 18 -5 13 -2 17 1 13 12 -5 13 -4 13 8 4 8 -6 18 -11 22 -10 5 1 11 0 14 -1
26 -10 41 -7 36 7 -5 13 -4 13 8 4 8 -6 18 -11 22 -10 5 1 11 0 14 -1 26 -10
41 -7 36 7 -5 13 -4 13 8 4 8 -6 18 -11 22 -10 5 1 11 0 14 -1 26 -10 41 -7
36 7 -5 13 -4 13 8 4 8 -6 18 -11 22 -10 5 1 11 0 14 -1 26 -10 41 -7 36 7 -5
13 -4 13 8 4 8 -6 18 -11 22 -10 5 1 11 0 14 -1 26 -10 41 -7 36 7 -5 13 -4
13 8 4 8 -6 18 -11 22 -10 5 1 11 0 14 -1 26 -10 41 -7 36 7 -5 13 -4 13 8 4
8 -6 18 -11 22 -10 5 1 11 0 14 -1 26 -10 41 -7 36 7 -5 13 -4 14 9 3 9 -7 18
-10 22 -7 3 4 12 2 20 -4 10 -9 13 -8 13 1 0 10 3 10 15 0 9 -7 15 -8 15 -2 0
6 8 9 18 7 9 -2 23 -4 31 -4 10 -1 10 -7 -4 -27 -9 -15 -11 -23 -4 -19 8 5 10
4 5 -3 -4 -7 -13 -12 -21 -12 -17 0 -57 -55 -47 -65 4 -5 0 -6 -10 -2 -11 4
-18 -1 -21 -15 -3 -11 -9 -18 -14 -15 -11 7 -34 -19 -25 -29 4 -4 -1 -4 -12 0
-13 5 -17 2 -13 -9 4 -8 2 -17 -3 -20 -6 -4 -10 0 -10 7 0 7 -6 4 -12 -7 -15
-27 -30 -36 -48 -29 -12 4 -13 3 -2 -7 17 -18 15 -30 -3 -23 -8 4 -15 1 -15
-6 0 -6 -4 -8 -10 -5 -5 3 -10 -1 -10 -10 0 -9 -4 -14 -9 -10 -5 3 -16 -4 -25
-16 -8 -12 -19 -18 -25 -14 -6 3 -11 -1 -11 -9 0 -8 -5 -18 -12 -22 -7 -5 -8
-3 -3 5 5 10 2 9 -13 0 -12 -7 -19 -16 -17 -19 2 -3 -6 -12 -18 -20 -21 -12
-21 -12 -7 6 14 19 14 19 -8 0 -12 -11 -22 -26 -23 -35 0 -11 -2 -12 -6 -3 -4
10 -8 10 -19 1 -8 -6 -14 -8 -14 -4 0 4 -7 2 -15 -5 -8 -7 -12 -16 -9 -21 3
-5 -1 -6 -9 -3 -8 3 -21 -2 -30 -10 -8 -8 -18 -12 -22 -8 -5 4 -5 -1 -2 -11 4
-11 3 -16 -4 -12 -5 4 -17 1 -26 -7 -14 -11 -15 -11 -9 0 7 11 4 11 -12 1 -12
-7 -19 -17 -16 -21 3 -4 -1 -5 -9 -2 -8 3 -18 0 -23 -7 -5 -8 -3 -10 6 -4 9 5
11 4 6 -4 -6 -9 -11 -9 -21 -1 -9 7 -14 7 -17 1 -1 -6 -13 -12 -25 -14 -12 -2
-26 -7 -30 -12 -5 -4 -3 -5 4 -1 6 3 14 2 18 -3 3 -6 -6 -8 -21 -5 -15 3 -30
1 -33 -3 -10 -13 -73 -44 -65 -32 4 7 1 10 -7 7 -8 -3 -13 -11 -11 -17 2 -9
-3 -9 -19 0 -15 8 -19 8 -15 0 4 -7 -1 -11 -14 -11 -11 0 -33 -8 -47 -17 -21
-14 -25 -15 -18 -3 7 12 6 13 -7 3 -8 -7 -18 -10 -21 -6 -4 3 -7 1 -7 -6 0 -7
-7 -11 -15 -8 -8 4 -17 2 -20 -4 -4 -5 -10 -7 -15 -4 -5 3 -12 0 -16 -6 -4 -8
-9 -7 -15 2 -7 11 -9 11 -9 1 0 -7 -4 -10 -10 -7 -5 3 -10 0 -10 -7 0 -9 -3
-9 -10 2 -7 11 -10 11 -10 2 0 -7 -4 -10 -10 -7 -5 3 -10 1 -10 -5 0 -7 -6 -8
-18 -1 -13 7 -22 7 -29 0 -6 -6 -24 -11 -41 -13 -17 -1 -35 -5 -38 -9 -12 -12
-26 -8 -18 6 5 9 4 9 -6 0 -7 -6 -19 -9 -28 -6 -11 5 -13 2 -7 -6 6 -10 3 -11
-12 -2 -11 6 -23 7 -27 3 -4 -3 -21 -7 -39 -7 -18 0 -37 -4 -44 -8 -6 -4 -15
-3 -18 3 -5 8 -11 7 -21 -1 -11 -9 -14 -9 -14 0 0 8 -5 9 -17 2 -11 -6 -24 -6
-35 0 -12 7 -18 6 -18 -2 0 -8 -4 -8 -15 1 -12 10 -19 10 -27 2 -8 -8 -15 -8
-24 -1 -7 6 -15 6 -18 1 -3 -5 -17 -7 -31 -5 -13 3 -22 9 -19 14 3 5 -6 5 -19
0 -14 -6 -28 -7 -31 -3 -4 3 -23 5 -42 4 -27 -2 -34 0 -28 10 6 10 3 9 -9 -1
-9 -7 -17 -9 -17 -3 0 5 -15 9 -32 7 -18 -1 -42 5 -52 14 -18 15 -19 15 -14 0
4 -9 1 -16 -8 -16 -7 0 -11 4 -8 9 5 7 -11 12 -19 6 -2 -2 -12 4 -22 12 -17
13 -18 13 -10 0 8 -13 7 -13 -8 -1 -14 11 -20 11 -33 1 -12 -11 -15 -11 -12 1
2 9 -8 15 -30 17 -22 2 -30 7 -25 15 4 7 0 6 -10 -2 -12 -9 -17 -10 -17 -2 0
7 -4 9 -10 6 -5 -3 -10 2 -10 11 0 16 -1 16 -15 -2 -11 -13 -14 -14 -13 -4 2
9 -3 14 -14 12 -10 -2 -18 2 -18 8 0 5 -5 10 -11 10 -5 0 -7 -6 -4 -12 4 -7
-3 -2 -15 12 -12 14 -19 19 -15 13 3 -7 1 -13 -4 -13 -6 0 -11 5 -11 11 0 6
-7 9 -15 5 -8 -3 -15 -1 -15 4 0 6 -11 10 -24 10 -13 0 -29 7 -36 15 -7 9 -15
13 -18 10 -3 -3 -11 0 -19 6 -7 6 -13 8 -13 3 0 -4 -7 1 -16 12 -8 10 -12 12
-8 4 6 -12 4 -12 -12 1 -10 9 -25 14 -33 11 -8 -3 -11 0 -7 7 4 6 0 11 -9 11
-10 0 -13 5 -9 13 5 8 2 8 -9 -2 -11 -9 -17 -10 -17 -2 0 6 -7 11 -15 11 -8 0
-15 3 -15 8 0 11 -52 32 -63 25 -6 -3 -7 -1 -3 5 3 6 -3 13 -14 17 -11 4 -18
11 -15 16 4 5 -3 9 -14 9 -12 0 -21 5 -21 11 0 5 -4 8 -9 5 -5 -3 -12 1 -15
10 -4 9 -13 14 -21 10 -13 -5 -19 4 -17 25 1 3 -6 6 -14 7 -8 1 -21 3 -29 4
-8 1 -12 5 -10 9 3 3 -2 12 -10 19 -8 7 -15 9 -15 4 0 -5 -16 8 -35 29 -20 22
-40 35 -47 31 -7 -4 -8 -3 -4 4 4 7 2 12 -4 12 -6 0 -8 5 -4 12 4 6 3 8 -3 5
-14 -9 -63 30 -63 49 0 8 -5 14 -11 14 -5 0 -7 5 -3 12 4 7 3 8 -5 4 -15 -9
-125 99 -116 114 4 6 2 9 -3 8 -6 -2 -10 2 -10 7 0 6 4 9 9 7 5 -1 9 2 9 7 0
9 48 6 78 -4 6 -2 12 1 12 7 0 7 4 7 13 0 7 -6 18 -7 25 -3 12 7 76 6 98 -3 6
-2 16 -1 23 4 7 4 28 4 47 0 19 -4 34 -5 34 -1 0 10 100 7 100 -4 0 -5 5 -2
11 8 5 9 12 17 15 17 3 0 2 -5 -2 -11z m2683 -94 c0 -8 -4 -12 -9 -9 -5 3 -6
10 -3 15 9 13 12 11 12 -6z"/>
<path d="M1894 4463 c5 -10 -3 -13 -31 -14 -94 -3 -109 -5 -122 -13 -11 -7
-12 -6 -6 5 8 12 6 12 -8 0 -14 -11 -17 -11 -17 0 0 12 -2 12 -9 0 -5 -8 -16
-11 -24 -8 -9 3 -18 1 -21 -6 -3 -9 -5 -8 -5 1 -1 7 -6 10 -13 6 -6 -4 -27 -9
-47 -10 -95 -9 -149 -13 -178 -15 -37 -3 -36 1 -37 -91 -1 -67 7 -87 19 -48 4
11 11 18 16 15 5 -3 6 2 2 11 -4 12 -3 15 5 10 7 -4 12 -1 12 8 0 9 6 16 14
16 8 0 17 6 19 13 4 10 6 10 6 0 1 -7 8 -13 16 -13 8 0 15 -7 15 -16 0 -8 3
-13 8 -10 4 2 7 -17 7 -42 -1 -26 3 -52 7 -59 5 -6 4 -14 -3 -18 -8 -6 -7 -10
2 -17 10 -7 11 -11 2 -14 -7 -3 -9 -12 -6 -20 3 -7 9 -11 14 -8 5 3 9 0 9 -5
0 -6 -8 -11 -17 -11 -15 0 -15 -2 -4 -9 10 -6 15 -29 16 -68 0 -32 3 -63 7
-68 4 -6 3 -17 -2 -25 -6 -10 -3 -21 8 -34 16 -18 16 -19 -3 -13 -20 7 -20 7
-1 -8 11 -8 15 -15 9 -15 -8 0 -9 -9 -3 -30 6 -20 5 -30 -2 -30 -6 0 -6 -6 2
-15 7 -8 9 -15 5 -15 -4 0 -2 -7 5 -15 9 -11 9 -15 1 -15 -7 0 -10 -3 -8 -7 8
-14 -10 -48 -24 -48 -8 -1 -13 -6 -12 -12 3 -13 -15 -12 -36 1 -9 6 -12 5 -8
-2 5 -7 -1 -6 -17 1 -13 7 -22 15 -20 19 3 4 -2 5 -10 2 -11 -4 -16 0 -16 11
0 15 -3 15 -20 -5 -12 -14 -17 -27 -12 -34 5 -6 9 -32 10 -58 0 -26 3 -52 7
-58 3 -5 0 -10 -7 -10 -9 0 -9 -3 2 -10 8 -5 10 -10 4 -10 -6 0 -8 -19 -4 -55
4 -34 2 -56 -4 -59 -7 -3 -6 -5 2 -5 6 -1 12 -7 12 -15 0 -8 5 -18 12 -22 7
-4 8 -3 4 4 -9 14 3 15 23 3 9 -6 22 -6 34 1 12 6 17 6 13 0 -3 -6 10 -10 32
-11 87 -2 112 -5 112 -11 0 -4 7 -7 15 -7 8 0 15 5 15 10 0 5 7 4 15 -3 9 -8
15 -9 15 -2 0 6 10 9 21 7 12 -3 19 -2 16 2 -4 3 -2 15 4 26 7 11 7 17 1 13
-5 -3 -12 3 -15 14 -3 11 -1 18 4 14 5 -3 9 -1 9 5 0 5 -4 12 -9 15 -7 5 -8
41 -1 41 1 0 4 17 5 37 2 26 -1 36 -9 31 -7 -4 -6 -1 1 9 7 8 10 18 6 21 -3 4
0 7 8 8 9 0 7 3 -5 8 -17 7 -17 8 -2 23 14 15 14 17 -2 23 -16 6 -16 7 1 20
17 12 17 13 1 17 -16 3 -16 4 -1 20 14 14 15 17 1 22 -11 4 -12 10 -4 25 13
25 13 34 -1 25 -8 -4 -8 -1 -1 12 5 11 8 27 7 37 -2 9 0 17 5 17 4 0 7 8 6 18
0 9 4 16 11 15 7 -2 10 3 7 11 -3 7 2 19 10 26 9 7 14 16 11 20 -3 4 2 11 11
14 10 4 13 2 8 -6 -5 -7 -3 -8 5 -4 7 5 10 14 7 22 -3 8 -1 14 4 14 9 0 16 18
24 63 4 25 3 27 -11 15 -15 -12 -15 -11 -5 9 8 14 9 24 2 28 -6 3 -8 18 -6 31
4 23 3 24 -12 13 -9 -8 -14 -9 -9 -4 4 4 1 18 -5 29 -13 20 -18 62 -8 60 42
-9 55 -21 51 -46 0 -5 5 -7 12 -5 6 1 11 -4 10 -10 -2 -7 2 -13 7 -13 6 0 10
-9 10 -20 0 -11 4 -20 9 -20 5 0 14 -13 21 -30 7 -16 16 -27 21 -24 5 3 9 -2
9 -11 0 -9 4 -14 9 -11 5 4 11 2 13 -4 2 -6 13 -12 26 -15 31 -6 43 -15 36
-27 -4 -6 1 -8 16 -3 15 5 20 4 16 -4 -4 -6 -1 -11 7 -11 33 0 56 -105 28
-128 -9 -7 -10 -11 -4 -7 9 4 11 1 7 -9 -3 -9 -10 -13 -15 -10 -8 4 -13 -8
-11 -27 1 -3 -5 -6 -13 -6 -8 0 -12 4 -9 8 2 4 -2 11 -10 16 -8 4 -15 12 -15
18 1 18 -16 15 -29 -6 -8 -12 -9 -18 -3 -14 6 3 11 4 11 1 0 -2 -17 -15 -37
-27 -44 -27 -78 -36 -67 -17 4 7 -3 4 -15 -6 -19 -17 -21 -17 -15 -3 5 13 2
16 -10 11 -9 -3 -16 -1 -16 6 0 6 -4 8 -10 5 -5 -3 -10 -2 -10 3 0 6 -9 8 -21
5 -16 -4 -17 -8 -7 -14 10 -7 10 -9 -2 -9 -13 0 -13 -2 -1 -9 12 -8 12 -12 2
-24 -9 -12 -9 -16 1 -19 11 -4 11 -8 0 -20 -7 -9 -9 -19 -4 -22 5 -3 7 -16 5
-29 -3 -16 1 -26 11 -30 9 -4 16 -1 16 5 0 7 4 7 14 -1 10 -9 15 -8 20 4 3 8
15 15 26 15 11 0 20 6 20 13 0 8 3 7 10 -3 8 -12 10 -12 16 3 3 9 10 14 15 11
5 -3 9 0 9 6 0 6 4 9 9 5 6 -3 13 0 18 7 4 7 22 20 38 28 17 8 41 26 54 40 14
14 29 24 33 22 4 -1 8 7 8 19 0 11 5 17 10 14 6 -3 10 1 10 9 0 8 9 18 21 21
11 4 18 9 16 12 -3 2 3 13 14 24 11 11 17 24 14 29 -4 6 -1 10 4 10 6 0 11 5
11 11 0 6 6 17 14 24 11 12 15 10 24 -10 8 -16 8 -26 1 -31 -7 -4 -6 -10 1
-19 8 -10 8 -15 0 -20 -8 -5 -8 -10 0 -20 8 -10 8 -15 0 -20 -8 -5 -8 -10 0
-20 8 -9 8 -15 0 -20 -7 -4 -7 -13 1 -27 6 -11 7 -18 2 -15 -4 3 -8 -10 -8
-29 0 -19 4 -34 8 -34 5 0 5 -6 1 -12 -12 -18 -12 -48 -1 -55 5 -3 3 -9 -4
-14 -11 -7 -11 -9 -1 -9 8 0 10 -5 6 -12 -11 -18 -12 -48 -2 -54 4 -3 8 -10 8
-15 0 -6 -6 -7 -12 -3 -10 6 -10 4 0 -8 10 -13 10 -17 0 -21 -10 -4 -10 -6 -1
-6 9 -1 10 -8 3 -27 -7 -19 -7 -23 2 -18 7 5 9 2 5 -9 -5 -13 2 -15 39 -14 24
1 44 -2 45 -8 0 -5 4 -1 9 10 5 11 9 15 9 8 1 -6 14 -11 31 -11 16 1 27 5 23
11 -3 5 4 4 16 -2 16 -9 21 -9 21 0 0 9 3 9 14 0 11 -9 16 -9 21 0 6 8 10 7
16 -2 5 -8 9 -9 9 -4 0 6 25 10 58 10 31 0 65 3 75 8 10 4 17 4 17 -2 0 -6 11
-6 30 -1 18 5 32 5 36 -1 4 -6 10 -6 18 0 7 6 16 8 19 4 4 -3 7 -1 7 6 0 7 5
9 10 6 6 -4 7 -12 3 -18 -4 -8 -1 -7 9 1 21 17 108 23 108 8 0 -6 7 -3 14 6 7
10 15 16 17 13 3 -2 5 5 6 15 1 11 -3 20 -9 20 -6 0 -3 9 7 20 14 15 15 19 4
15 -10 -4 -15 1 -15 14 0 11 4 17 8 15 10 -6 5 26 -6 45 -6 10 -5 12 2 7 7 -4
12 -3 12 3 0 5 -5 13 -10 16 -6 4 -7 13 -1 23 4 9 6 23 3 31 -2 8 0 11 5 8 12
-7 10 30 -2 40 -4 5 -5 2 0 -6 6 -10 4 -12 -4 -7 -9 6 -9 11 0 22 9 11 9 18
-1 29 -11 13 -10 15 6 9 16 -5 16 -4 3 5 -17 11 -127 10 -146 -2 -8 -5 -13 -3
-13 5 0 10 -2 10 -9 0 -11 -17 -21 -17 -32 0 -7 11 -9 11 -9 -1 0 -11 -3 -11
-15 -1 -13 11 -14 10 -10 -1 4 -11 -6 -14 -47 -13 -82 1 -77 -3 -69 68 1 5 7
3 15 -3 11 -10 17 -8 25 6 6 10 11 13 11 6 0 -12 17 -12 38 1 7 4 19 2 27 -4
8 -7 15 -8 15 -3 0 6 12 9 28 8 16 -1 34 7 45 18 21 25 22 34 2 17 -20 -16
-19 -6 1 14 14 15 14 16 -3 16 -14 0 -15 2 -4 9 9 6 15 29 16 58 2 26 6 57 10
67 6 14 5 17 -3 12 -7 -4 -12 -3 -12 3 0 9 -37 7 -48 -3 -2 -3 -13 -1 -23 5
-11 5 -19 6 -19 1 0 -5 -7 -9 -15 -9 -8 0 -15 4 -15 9 0 5 -5 6 -10 3 -6 -4
-8 -10 -5 -14 2 -5 -7 -6 -20 -3 -15 2 -22 9 -18 16 3 6 0 6 -8 -1 -15 -15
-33 -17 -25 -4 4 5 1 11 -5 13 -9 3 -8 10 2 25 9 16 17 19 25 12 8 -7 15 -6
20 2 5 8 3 9 -6 4 -8 -5 -11 -4 -6 3 8 13 36 5 37 -12 0 -6 4 -2 9 9 5 11 9
14 9 7 1 -10 6 -10 21 -2 11 6 20 7 20 2 0 -5 7 -9 15 -9 8 0 12 3 10 7 -2 3
27 5 66 5 38 -1 69 2 69 7 0 5 4 7 9 3 5 -3 13 0 17 7 12 19 12 92 0 100 -7 5
-5 8 6 8 12 0 15 6 12 24 -2 15 2 26 11 30 8 3 15 1 15 -5 0 -6 6 -7 13 -4 6
4 3 -1 -7 -9 -11 -9 -15 -16 -10 -16 6 0 11 -7 11 -15 0 -8 -5 -15 -11 -15 -6
0 -5 -4 2 -9 14 -9 13 -32 -3 -43 -6 -5 -5 -11 4 -17 8 -5 9 -11 3 -15 -10 -6
-5 -45 7 -47 34 -6 71 -3 71 6 0 5 5 3 10 -5 8 -12 10 -12 10 -1 0 11 3 11 15
1 9 -7 15 -8 15 -2 0 5 9 8 20 5 15 -4 18 -9 10 -18 -8 -10 -6 -16 7 -24 13
-7 14 -10 4 -11 -8 0 -11 -3 -8 -7 4 -3 1 -13 -6 -21 -8 -11 -9 -14 0 -9 8 5
11 0 10 -13 -1 -11 -4 -20 -7 -20 -4 0 -7 -7 -7 -15 0 -8 4 -15 9 -15 5 0 6
-5 3 -10 -9 -15 -14 -80 -6 -80 4 0 7 -9 7 -20 0 -11 -3 -20 -6 -20 -3 0 -5
-66 -5 -148 0 -81 -4 -153 -9 -159 -5 -8 -4 -13 2 -13 9 0 7 -56 -3 -87 -3 -7
0 -13 6 -13 6 0 9 -7 5 -15 -5 -13 -2 -13 19 1 16 11 25 12 25 5 0 -8 6 -9 18
-3 9 5 25 8 34 7 10 -2 21 1 24 7 4 7 9 6 14 -2 6 -9 11 -8 21 3 12 13 15 12
27 -2 7 -9 11 -10 7 -3 -3 6 -3 12 2 13 4 0 16 2 26 4 9 2 17 -2 17 -8 0 -9 2
-9 8 -1 4 6 23 11 42 11 65 1 70 7 67 84 -1 41 2 69 8 70 6 0 1 4 -10 9 -11 5
-14 9 -8 9 15 1 14 53 -2 63 -6 5 -2 8 9 8 14 0 16 3 7 13 -7 10 -7 17 0 24 7
7 7 13 1 17 -6 3 -7 20 -2 40 4 19 5 37 3 40 -10 10 -8 96 2 97 6 0 1 4 -10 9
-11 5 -14 9 -8 9 15 1 14 53 -2 63 -6 5 -2 8 9 8 14 0 16 3 7 13 -7 10 -7 17
0 24 7 7 7 13 1 17 -7 4 -7 17 -2 36 7 25 6 30 -8 30 -13 0 -13 3 4 16 10 8
13 12 5 8 -10 -5 -12 -3 -6 5 4 7 18 11 31 8 13 -2 21 -1 19 4 -8 12 18 17 37
8 10 -5 19 -5 22 0 3 5 15 7 27 4 16 -4 17 -8 7 -14 -8 -6 -9 -9 -1 -9 6 0 9
-8 6 -18 -4 -17 3 -18 86 -18 50 1 91 3 91 6 0 3 20 4 45 3 28 0 45 3 45 10 0
8 3 8 8 2 4 -5 21 -10 37 -10 17 0 34 5 38 10 10 13 -3 -44 -15 -68 -5 -9 -6
-23 -2 -29 4 -7 3 -8 -4 -4 -7 4 -13 1 -13 -8 -3 -36 -5 -41 -18 -38 -7 1 -10
-2 -6 -7 3 -6 1 -19 -5 -31 -5 -11 -15 -29 -21 -41 -8 -17 -8 -20 3 -14 7 3 5
0 -4 -8 -10 -8 -15 -17 -11 -20 3 -4 2 -7 -4 -7 -6 0 -10 -13 -9 -29 1 -16 -3
-29 -8 -28 -6 1 -10 -4 -8 -10 1 -7 -3 -13 -10 -13 -6 0 -8 -3 -5 -7 4 -3 2
-12 -4 -20 -6 -7 -9 -22 -6 -32 3 -12 0 -18 -7 -15 -7 2 -12 -5 -13 -17 -1
-12 -8 -26 -15 -30 -7 -5 -8 -9 -3 -9 6 0 1 -7 -9 -15 -11 -8 -15 -15 -9 -15
8 0 7 -9 -3 -27 -7 -16 -14 -34 -14 -40 0 -7 -5 -13 -11 -13 -5 0 -8 -3 -5 -8
2 -4 -8 -34 -24 -66 -31 -63 -31 -93 1 -75 14 7 19 6 19 -2 0 -7 5 -8 13 -3 6
5 47 9 89 9 45 0 78 4 78 10 0 6 5 3 10 -5 7 -11 10 -11 10 -2 0 10 5 10 21 1
16 -8 20 -8 14 0 -4 8 2 10 21 7 15 -3 34 0 41 6 9 7 13 7 13 -1 0 -8 6 -9 18
-2 26 14 34 14 43 -1 5 -8 9 -9 9 -2 0 7 13 10 30 9 17 -1 33 2 36 7 3 5 12 4
20 -3 10 -8 14 -8 14 0 0 13 22 10 32 -4 5 -6 8 -6 8 2 0 11 42 9 63 -4 6 -3
7 -1 3 5 -3 6 -2 13 4 17 5 3 10 2 10 -3 0 -9 28 -10 45 -1 6 3 38 5 72 4 49
0 63 3 64 15 0 10 3 8 9 -5 5 -11 9 -14 9 -7 1 10 6 10 22 1 16 -8 20 -8 14 0
-4 8 2 10 19 7 15 -3 24 -1 21 5 -4 5 -1 9 5 9 7 0 10 13 9 33 -2 17 2 41 8
52 6 11 10 32 9 48 -1 15 1 27 4 27 3 0 6 12 7 28 1 47 3 53 12 47 6 -3 6 6 1
24 -4 16 -6 32 -3 34 2 3 6 17 7 31 3 24 -5 31 -29 26 -5 -1 -18 -2 -27 -3
-10 -1 -18 -6 -19 -12 0 -5 -4 -1 -9 10 l-9 20 0 -20 c-1 -17 -3 -17 -11 -5
-6 9 -10 10 -10 3 0 -7 -10 -10 -26 -7 -17 3 -23 1 -19 -7 6 -8 2 -8 -13 0
-15 8 -23 8 -28 0 -4 -8 -9 -7 -15 2 -5 8 -9 9 -9 3 0 -12 1 -12 -92 -18 -37
-2 -71 -7 -77 -10 -5 -4 -23 -5 -39 -4 l-30 2 22 42 c11 23 24 40 29 37 4 -2
7 5 7 16 0 12 5 21 11 21 5 0 7 5 4 10 -3 6 -2 10 2 10 8 0 17 14 47 78 8 17
20 32 27 32 7 0 10 3 6 6 -3 4 4 15 16 26 12 11 16 16 8 12 -9 -4 -12 -2 -9 7
3 8 11 13 17 11 6 -1 11 1 10 5 -2 17 14 52 21 48 5 -3 11 -1 15 5 3 5 0 10
-7 10 -8 1 -6 6 6 15 11 8 16 15 12 15 -5 0 -3 7 4 15 7 8 17 12 24 8 7 -5 7
-2 -1 8 -10 12 -8 17 8 27 10 7 19 18 19 26 0 7 7 19 15 26 8 7 13 16 10 20
-3 5 1 15 9 23 8 8 12 18 8 22 -4 5 0 6 9 2 12 -4 15 0 13 19 -1 13 3 27 8 31
7 4 8 1 3 -8 -8 -12 -6 -12 8 0 14 11 15 16 5 29 -8 10 -9 13 -2 9 7 -4 15 0
18 9 3 8 12 12 18 9 7 -4 5 0 -4 8 -10 8 -14 18 -10 22 4 4 -4 2 -17 -5 -19
-10 -25 -10 -32 1 -7 12 -9 12 -9 0 0 -9 -4 -10 -12 -4 -14 10 -28 11 -43 2
-18 -11 -75 -8 -76 4 0 7 -4 3 -9 -8 -5 -11 -9 -15 -9 -8 -1 8 -10 9 -31 3
-29 -8 -34 -6 -31 15 1 6 -4 3 -11 -5 -10 -12 -37 -15 -118 -15 -58 0 -111 -4
-117 -9 -8 -5 -13 -4 -13 2 0 11 -39 10 -58 -2 -7 -4 -12 -2 -12 5 0 8 -5 7
-17 -2 -9 -8 -14 -9 -11 -3 7 10 -22 10 -75 -1 -22 -4 -27 -3 -21 7 6 10 3 9
-9 -1 -14 -11 -17 -11 -17 0 0 8 -6 6 -16 -7 -8 -10 -13 -14 -10 -8 3 7 -1 14
-9 17 -10 4 -12 1 -8 -11 5 -14 3 -15 -8 -4 -16 15 -33 16 -23 1 4 -8 0 -8
-15 0 -16 9 -21 9 -21 -1 0 -9 -3 -9 -10 2 -7 11 -10 11 -10 2 0 -7 -5 -10
-10 -7 -6 4 -18 1 -26 -6 -20 -16 -29 -4 -33 46 -1 6 -6 3 -11 -5 -6 -9 -10
-10 -10 -3 0 14 -62 13 -72 -2 -5 -6 -8 -5 -8 3 0 8 -5 10 -12 5 -21 -12 -38
-12 -38 0 0 7 -4 6 -9 -2 -8 -13 -12 -13 -27 0 -14 11 -16 11 -10 0 7 -11 1
-13 -28 -9 -20 2 -36 1 -36 -2 0 -3 -17 -6 -37 -5 -21 0 -44 -4 -52 -10 -11
-8 -13 -7 -7 3 7 11 4 12 -12 3 -27 -14 -35 -14 -26 1 5 7 3 8 -7 2 -20 -12
-46 -16 -121 -18 -38 0 -68 -5 -68 -10 0 -5 -7 -3 -15 4 -11 9 -15 9 -15 1 0
-7 -5 -9 -12 -5 -17 11 -48 13 -42 3 2 -4 0 -10 -6 -14 -5 -3 -10 -1 -10 5 0
6 -7 18 -15 26 -8 9 -15 12 -15 8 0 -3 -7 -1 -15 6 -12 10 -16 9 -21 -4 -4
-11 -11 -13 -23 -6 -12 6 -22 5 -29 -2 -7 -7 -12 -8 -12 -4 0 5 -6 3 -14 -3
-8 -7 -17 -8 -20 -3 -3 5 -20 7 -38 5 -18 -3 -54 -6 -80 -6 -27 -1 -48 -6 -48
-11 0 -4 -6 -4 -12 1 -15 11 -28 11 -47 -1 -10 -7 -12 -5 -6 5 6 11 5 12 -6 2
-7 -7 -17 -13 -22 -13 -4 0 -5 6 -1 13 6 9 5 9 -7 0 -9 -7 -58 -13 -122 -15
-90 -3 -106 -5 -102 -18 4 -11 2 -11 -8 2 -9 11 -18 14 -28 7 -8 -5 -10 -9 -6
-9 12 0 -12 -40 -24 -40 -6 0 -7 5 -3 12 5 8 2 9 -11 4 -15 -5 -16 -4 -5 9 11
13 10 14 -3 9 -11 -4 -20 2 -27 18 -6 13 -21 25 -32 25 -12 1 -25 7 -29 14 -4
7 -14 9 -24 6 -9 -4 -14 -3 -10 3 6 10 5 11 -33 15 -12 1 -25 5 -29 8 -3 4
-14 2 -24 -4 -15 -8 -17 -6 -12 7 5 13 3 15 -8 9 -21 -13 -52 -14 -68 -1 -11
8 -13 8 -7 -1z m115 -357 c9 -11 7 -13 -13 -13 -17 0 -23 4 -19 13 3 8 9 14
13 14 4 0 13 -6 19 -14z m-253 -58 c1 -12 -4 -18 -16 -18 -18 0 -34 23 -22 34
11 12 35 1 38 -16z m252 -296 c-5 -24 -48 -29 -48 -5 0 13 8 19 26 21 19 1 25
-2 22 -16z m1422 -326 c0 -3 -4 -8 -10 -11 -5 -3 -10 -1 -10 4 0 6 5 11 10 11
6 0 10 -2 10 -4z"/>
<path d="M1362 4220 c2 -8 -3 -14 -9 -12 -12 2 -17 -10 -14 -30 0 -5 -2 -7 -6
-5 -5 1 -8 -1 -8 -5 0 -4 -9 -13 -19 -21 -12 -9 -16 -19 -11 -27 5 -8 4 -11
-2 -7 -14 9 -46 -40 -37 -55 4 -6 3 -9 -2 -6 -12 8 -28 -12 -32 -37 -8 -53 -8
-105 -1 -105 5 0 9 -9 9 -20 0 -11 6 -20 13 -20 8 0 7 -4 -3 -10 -13 -8 -12
-10 4 -10 13 0 16 -5 12 -17 -4 -10 -4 -14 0 -11 3 4 13 0 21 -8 8 -8 19 -12
24 -9 5 4 9 -1 9 -10 0 -9 4 -14 9 -11 5 3 12 -1 15 -10 3 -8 10 -12 16 -9 5
3 10 1 10 -4 0 -6 6 -11 13 -11 8 0 14 7 14 15 0 8 -4 15 -9 15 -5 0 -6 5 -3
10 4 6 12 7 18 3 7 -3 4 3 -6 14 -11 13 -14 23 -8 27 7 5 7 15 1 31 -6 16 -6
25 0 25 6 0 6 10 0 26 -7 16 -7 32 0 43 5 10 6 21 3 25 -4 4 -7 58 -8 121 0
62 -4 117 -8 122 -5 4 -7 1 -5 -7z"/>
<path d="M4306 3953 c-6 -14 -5 -15 5 -6 7 7 10 15 7 18 -3 3 -9 -2 -12 -12z"/>
<path d="M1954 3925 c-7 -17 13 -39 42 -47 27 -7 50 32 31 51 -16 16 -67 14
-73 -4z"/>
<path d="M2925 3620 c-3 -5 -1 -10 4 -10 6 0 11 5 11 10 0 6 -2 10 -4 10 -3 0
-8 -4 -11 -10z"/>
<path d="M2495 3300 c-3 -5 -3 -10 1 -10 4 0 -2 -8 -12 -17 -10 -10 -20 -25
-22 -33 -2 -8 -9 -18 -15 -22 -7 -4 -8 -8 -3 -8 6 0 1 -7 -10 -15 -19 -15 -19
-15 1 -9 l20 7 -20 -21 c-36 -37 -44 -50 -38 -56 4 -3 1 -6 -5 -6 -7 0 -12 -3
-11 -7 2 -16 -14 -53 -23 -53 -6 0 -7 -7 -4 -16 3 -8 2 -13 -3 -10 -8 5 -36
-42 -33 -56 1 -5 -3 -8 -9 -8 -5 0 -8 -4 -4 -9 3 -6 -4 -15 -15 -21 -11 -6
-18 -16 -14 -22 4 -5 1 -14 -5 -18 -7 -4 -13 -16 -14 -28 0 -11 -6 -20 -11
-19 -6 1 -12 -8 -14 -20 -2 -13 -8 -23 -14 -23 -5 0 -8 -6 -5 -14 3 -8 -2 -16
-14 -19 -12 -3 -17 -11 -13 -20 3 -8 -3 -22 -12 -32 -17 -16 -18 -16 -31 1
-12 17 -17 38 -14 57 1 5 -4 5 -10 1 -9 -5 -10 -1 -7 14 4 14 2 20 -5 15 -6
-4 -8 0 -4 10 3 10 2 17 -3 17 -6 0 -10 9 -10 20 0 11 -4 20 -8 20 -5 0 -9 7
-10 15 -1 8 -3 22 -4 30 -1 8 -4 15 -8 15 -4 0 -6 13 -5 30 1 16 -2 27 -6 24
-10 -6 -19 9 -21 40 -1 14 -5 26 -9 26 -7 0 -23 56 -22 77 0 7 -3 11 -7 8 -4
-3 -11 2 -14 11 -3 8 -2 12 4 9 6 -3 10 -1 10 4 0 6 -4 11 -10 11 -5 0 -10 7
-10 15 0 8 -6 15 -12 15 -10 0 -10 2 0 8 9 6 5 12 -13 20 -15 7 -24 8 -20 3 3
-6 -4 -15 -15 -21 -11 -6 -18 -15 -15 -21 4 -5 -1 -9 -10 -9 -9 0 -13 -4 -10
-10 6 -9 -7 -14 -27 -11 -4 0 -5 -6 -2 -14 6 -13 -6 -20 -28 -16 -5 0 -8 -8
-8 -19 0 -12 -7 -20 -17 -20 -9 0 -14 -3 -11 -6 3 -3 -5 -16 -18 -29 -26 -27
-74 -31 -74 -7 0 8 -11 23 -25 34 -14 11 -25 26 -25 34 0 8 -5 14 -11 14 -5 0
-8 4 -5 9 3 5 -4 11 -15 14 -15 4 -20 11 -16 21 4 10 1 16 -8 16 -8 0 -15 6
-15 13 0 7 -8 20 -17 29 -31 29 -42 46 -35 54 4 4 -1 4 -10 1 -9 -3 -19 -1
-22 6 -2 7 -5 4 -5 -5 -1 -26 -3 -32 -17 -45 -6 -6 -9 -24 -6 -39 3 -19 1 -25
-7 -20 -6 4 -11 4 -12 -1 -1 -4 -2 -21 -4 -36 -1 -16 -6 -32 -11 -35 -5 -4
-11 -16 -12 -27 -2 -11 -8 -25 -14 -32 -5 -7 -7 -17 -3 -23 3 -5 1 -10 -4 -10
-6 0 -11 -5 -11 -11 0 -5 6 -7 13 -4 6 4 3 -1 -8 -10 -11 -9 -19 -18 -17 -20
7 -14 1 -35 -10 -29 -7 4 -8 3 -4 -5 4 -6 2 -19 -6 -28 -9 -12 -9 -15 0 -9 18
11 14 -5 -5 -20 -13 -10 -14 -13 -4 -14 11 0 11 -3 0 -16 -7 -9 -14 -23 -15
-32 -2 -8 -9 -19 -16 -23 -11 -7 -10 -9 1 -9 11 0 11 -3 1 -15 -6 -8 -8 -20
-4 -26 4 -8 3 -9 -4 -5 -8 5 -12 0 -12 -13 0 -11 -5 -23 -10 -26 -6 -4 -7 -11
-4 -17 4 -6 0 -14 -7 -19 -12 -7 -11 -9 1 -9 13 0 13 -2 1 -9 -8 -5 -16 -21
-18 -36 -3 -17 0 -24 7 -20 5 3 10 1 10 -5 0 -7 7 -10 15 -6 8 3 14 2 12 -2
-1 -4 2 -8 7 -9 5 0 13 -8 18 -17 5 -9 13 -14 19 -11 5 4 9 1 9 -4 0 -6 7 -11
15 -11 8 0 15 -4 15 -10 0 -5 5 -10 11 -10 6 0 17 -6 24 -12 38 -34 45 -38 45
-28 0 6 6 8 13 4 6 -4 9 -4 5 1 -4 4 -2 15 5 23 10 13 9 14 -2 8 -9 -6 -8 -1
3 17 9 13 18 33 20 43 8 41 11 49 24 62 7 8 10 18 6 23 -3 6 0 17 8 26 9 12 9
15 1 9 -9 -5 -11 -2 -7 8 3 9 10 13 15 10 5 -3 9 -1 9 4 0 6 9 8 20 5 11 -3
17 -10 13 -16 -3 -5 5 -18 18 -29 20 -15 21 -17 4 -12 -13 4 -10 -1 8 -14 20
-14 25 -21 15 -25 -9 -4 -7 -6 5 -6 10 -1 15 -5 12 -11 -3 -5 -2 -10 3 -10 5
0 15 -13 22 -29 6 -16 18 -32 27 -35 8 -3 11 -11 7 -18 -5 -9 -4 -10 4 -3 6 6
12 16 14 24 2 8 10 22 18 32 39 46 40 47 27 52 -9 4 -9 6 1 6 6 1 12 8 12 17
0 10 6 14 14 11 9 -4 12 0 9 13 -3 10 0 27 7 37 11 17 11 17 6 -2 -5 -17 -4
-18 7 -5 6 8 18 16 26 18 12 3 12 0 2 -11 -7 -9 -8 -17 -2 -19 5 -1 11 -12 13
-23 1 -11 6 -22 10 -25 4 -3 10 -17 12 -30 2 -14 5 -27 6 -30 2 -3 2 -8 1 -12
0 -5 3 -8 8 -8 5 0 8 -8 6 -17 -1 -10 4 -30 11 -44 7 -15 10 -29 7 -33 -4 -3
5 -6 18 -7 22 0 23 -1 4 -9 -18 -8 -18 -9 -2 -9 18 -1 51 24 53 41 1 4 2 11 3
14 0 4 7 1 15 -5 10 -9 17 -7 27 6 12 16 12 17 -1 8 -9 -5 -7 -2 5 9 11 10 19
22 18 26 -3 10 50 6 67 -5 9 -6 11 -4 5 6 -5 8 1 6 12 -4 16 -14 22 -15 26 -5
4 9 6 9 6 -3 1 -11 10 -15 31 -13 16 1 27 -2 24 -7 -5 -9 6 -11 53 -12 12 -1
20 -4 17 -8 -6 -10 43 -17 58 -8 7 5 9 9 4 9 -6 0 -5 5 1 11 6 6 9 18 6 25 -3
8 -1 14 4 14 5 0 9 16 8 36 -2 25 2 34 11 30 7 -3 15 0 18 7 3 9 5 8 5 -1 1
-7 6 -10 13 -6 6 4 45 8 87 9 64 1 79 -2 93 -18 10 -11 15 -24 12 -28 -3 -5
-1 -9 4 -9 4 0 15 -14 24 -32 12 -26 21 -32 46 -33 18 0 32 3 32 7 0 4 9 8 20
8 11 0 20 4 20 9 0 6 9 8 20 6 11 -2 18 0 15 4 -6 11 23 23 35 16 5 -3 11 -1
15 5 4 6 11 8 16 5 5 -4 9 -1 9 6 0 7 3 9 7 6 3 -4 12 -2 19 4 8 6 21 9 29 5
9 -3 13 -2 10 4 -3 6 1 10 9 10 10 0 13 -6 9 -17 -5 -11 -3 -14 6 -8 10 6 11
3 2 -13 -7 -14 -8 -29 -2 -45 6 -14 7 -29 3 -33 -4 -5 0 -3 10 4 13 10 17 10
21 0 3 -7 6 -4 6 7 1 16 3 17 10 6 8 -12 12 -12 25 -2 15 13 20 9 17 -14 -1
-5 6 -1 14 9 8 11 15 15 15 10 0 -5 9 -10 20 -10 11 0 20 3 20 6 0 3 23 5 50
4 30 0 50 4 51 10 0 6 2 21 5 34 3 15 0 21 -7 16 -8 -4 -8 0 0 15 9 16 9 21
-1 21 -9 0 -9 3 2 10 13 9 13 11 0 20 -11 7 -11 10 -2 10 7 0 10 5 7 11 -17
26 -12 57 11 68 19 9 22 8 17 -6 -4 -11 -3 -14 6 -9 7 5 18 0 27 -10 9 -11 12
-12 8 -4 -6 11 -2 10 13 -2 11 -10 27 -18 36 -18 9 0 17 -4 17 -10 0 -5 7 -10
15 -10 8 0 15 -6 15 -12 0 -10 3 -9 9 1 5 8 10 9 12 3 2 -6 11 -12 19 -14 8
-2 21 -9 28 -16 8 -7 18 -10 23 -7 5 4 9 1 9 -4 0 -6 7 -11 15 -11 8 0 15 -4
15 -10 0 -5 9 -10 21 -10 12 0 17 -4 13 -11 -4 -8 0 -8 15 0 23 13 27 26 11
36 -7 4 -7 12 0 25 13 25 13 33 -2 24 -9 -5 -9 -3 1 9 7 9 11 30 9 47 -3 16
-2 30 1 30 3 0 6 36 6 79 -1 47 3 77 9 74 5 -4 6 -1 1 8 -11 17 -11 46 -1 78
6 16 4 26 -5 32 -11 7 -11 9 1 9 12 0 15 16 14 88 0 48 2 91 4 96 8 14 6 58
-3 79 -5 12 -11 14 -19 8 -7 -6 -18 -6 -26 -1 -7 4 -24 4 -37 -1 -12 -5 -23
-5 -23 -1 0 4 -39 8 -87 7 -74 0 -86 -2 -89 -17 -1 -10 2 -20 7 -24 5 -3 5
-13 1 -22 -5 -9 -8 -60 -7 -112 1 -126 -6 -130 -91 -52 -16 15 -33 25 -38 24
-5 -2 -15 6 -23 18 -8 11 -19 18 -24 15 -5 -4 -9 1 -9 9 0 8 -5 18 -12 22 -7
5 -8 3 -3 -7 8 -12 6 -12 -8 0 -9 7 -14 18 -10 24 4 7 0 8 -11 4 -14 -6 -17
-3 -12 8 3 9 2 13 -4 10 -6 -3 -13 1 -16 9 -3 9 -10 14 -14 11 -4 -3 -18 8
-31 24 -16 21 -26 26 -31 18 -5 -8 -8 -4 -8 11 0 12 -5 22 -11 22 -5 0 -7 -4
-4 -10 3 -5 1 -10 -4 -10 -6 0 -11 -5 -11 -11 0 -5 5 -7 11 -3 8 5 8 1 0 -13
-7 -14 -7 -23 1 -31 9 -9 9 -12 0 -12 -8 0 -9 -10 -5 -32 5 -25 3 -29 -8 -23
-8 5 -5 -2 6 -15 11 -13 15 -20 9 -17 -8 5 -12 -7 -11 -38 0 -28 4 -42 11 -39
6 3 3 -1 -6 -9 -10 -8 -15 -16 -13 -19 11 -11 13 -48 3 -48 -7 0 -7 -5 1 -14
9 -11 9 -15 -1 -19 -10 -4 -10 -6 1 -6 11 -1 11 -4 0 -18 -10 -11 -10 -14 -1
-9 15 9 15 1 2 -25 -8 -14 -7 -19 1 -19 8 0 8 -4 -1 -15 -8 -10 -9 -15 -1 -15
7 0 8 -8 0 -27 -7 -19 -6 -28 2 -34 7 -4 8 -12 3 -20 -12 -20 -14 -59 -2 -59
7 0 6 -5 -1 -14 -11 -13 -15 -12 -30 2 -10 9 -16 19 -15 21 8 9 -19 42 -31 38
-9 -4 -11 1 -8 14 3 11 0 19 -6 19 -7 0 -9 5 -6 10 3 6 1 10 -4 10 -6 0 -11 7
-11 15 0 9 -7 18 -16 22 -8 3 -13 12 -10 20 3 7 -1 16 -10 20 -9 3 -20 17 -25
30 -5 13 -13 22 -18 18 -6 -3 -8 4 -6 15 2 11 0 18 -6 15 -8 -6 -13 8 -10 28
1 5 -2 6 -6 4 -5 -3 -14 1 -21 9 -7 8 -10 14 -5 14 4 0 -2 7 -13 16 -10 8 -12
12 -4 8 9 -4 6 3 -6 17 -12 13 -25 34 -29 47 -3 12 -10 20 -14 18 -4 -3 -13 4
-20 16 -7 11 -8 17 -2 13 6 -3 11 -1 11 4 0 6 -5 11 -11 11 -6 0 -17 7 -25 15
-9 9 -11 15 -4 15 7 0 6 5 -2 14 -7 8 -16 12 -21 9 -4 -2 -6 -1 -5 4 1 4 -3
18 -10 29 -6 12 -8 24 -5 28 3 3 -2 6 -11 6 -12 0 -16 5 -13 15 4 8 1 17 -5
21 -7 5 -8 2 -3 -6 6 -9 4 -11 -4 -6 -7 5 -10 15 -7 23 5 11 2 13 -9 9 -9 -3
-13 -2 -10 3 3 5 1 12 -4 15 -5 4 -12 2 -16 -4z m39 -441 c-2 -4 2 -9 10 -12
8 -3 12 -16 11 -31 -2 -15 2 -26 8 -26 7 0 3 -7 -7 -15 -10 -8 -23 -12 -29 -8
-5 3 -13 0 -17 -7 -7 -11 -11 -10 -22 1 -18 20 -21 41 -8 49 7 4 13 19 13 34
1 14 8 26 15 26 6 0 12 6 12 13 0 8 3 7 9 -3 6 -8 8 -17 5 -21z"/>
<path d="M4369 3272 c-5 -15 -17 -33 -26 -39 -13 -10 -13 -13 -3 -13 9 0 7 -5
-6 -14 -10 -8 -20 -19 -20 -25 -1 -6 -2 -16 -3 -22 0 -5 -6 -7 -11 -4 -6 4 -9
3 -8 -2 4 -14 -13 -53 -23 -53 -6 0 -7 -5 -4 -10 3 -6 -3 -23 -14 -39 -12 -16
-21 -34 -21 -40 0 -6 -4 -11 -10 -11 -5 0 -9 -6 -7 -12 1 -7 -3 -12 -10 -11
-6 1 -10 -8 -9 -22 2 -13 -2 -23 -8 -22 -6 1 -11 -6 -11 -16 0 -10 -8 -24 -17
-31 -10 -7 -15 -16 -11 -19 3 -4 -4 -16 -17 -27 -13 -11 -18 -20 -11 -20 7 0
3 -10 -9 -22 -11 -12 -20 -28 -20 -35 0 -7 -5 -13 -11 -13 -6 0 -9 -6 -6 -14
3 -8 -1 -17 -10 -20 -8 -4 -13 -13 -9 -21 3 -8 1 -15 -4 -15 -5 0 -17 -16 -26
-35 -9 -19 -21 -35 -26 -35 -6 0 -8 -7 -4 -15 3 -10 -1 -15 -12 -16 -10 0 -12
-3 -4 -6 6 -2 10 -8 7 -13 -3 -4 2 -13 10 -20 8 -7 15 -9 15 -5 0 4 8 1 17 -6
11 -10 14 -10 9 -1 -10 17 2 15 21 -3 8 -8 19 -13 24 -10 5 4 9 0 9 -7 0 -11
2 -10 9 0 7 11 9 11 14 -2 4 -9 11 -16 17 -16 6 0 8 6 5 13 -4 6 -1 5 7 -3 7
-8 19 -15 26 -16 28 -2 33 -4 29 -11 -3 -5 12 -8 33 -9 30 0 37 3 32 15 -4 10
-1 12 9 6 12 -8 12 -6 0 8 -7 10 -9 17 -3 17 6 0 9 12 7 26 -1 14 3 28 11 31
7 2 11 12 9 21 -3 15 9 17 101 17 97 0 109 -3 105 -28 -1 -5 3 -6 8 -3 5 4 12
2 16 -4 3 -5 0 -10 -7 -10 -7 -1 -4 -6 7 -13 11 -7 21 -19 23 -27 8 -35 43
-45 84 -24 15 8 35 11 44 7 12 -4 15 -3 10 5 -7 12 1 15 36 15 10 0 15 4 12 8
-5 9 0 11 29 13 6 1 15 5 18 9 3 4 16 9 27 10 12 1 22 5 22 10 0 4 4 6 9 2 6
-3 15 4 21 15 8 14 8 20 0 20 -6 0 -8 5 -5 10 3 6 0 10 -8 10 -22 0 -39 24
-26 37 8 8 5 14 -10 22 -12 7 -21 16 -21 22 0 5 -9 19 -20 31 -11 12 -20 28
-20 35 0 7 -5 13 -11 13 -5 0 -8 4 -5 9 3 5 -1 11 -9 15 -8 3 -15 12 -15 20 0
7 -7 16 -15 20 -8 3 -15 12 -15 19 0 8 -9 24 -20 37 -11 12 -18 26 -15 29 2 4
-5 14 -16 21 -10 8 -19 20 -19 27 0 7 -4 13 -10 13 -5 0 -10 7 -10 15 0 8 -4
15 -10 15 -5 0 -9 6 -7 13 1 6 -4 11 -12 9 -9 -2 -11 3 -7 13 3 9 -1 18 -10
22 -9 3 -13 12 -9 21 3 9 3 13 -1 9 -4 -4 -13 -2 -21 4 -15 13 -18 33 -3 24 6
-3 7 1 4 9 -3 9 -9 14 -13 11 -8 -4 -35 28 -32 39 0 3 -7 15 -16 25 -33 36
-42 49 -37 54 3 2 -5 7 -16 10 -16 4 -23 -1 -31 -21z m45 -404 c-5 -8 -1 -9
12 -4 10 4 15 4 12 0 -4 -4 -3 -16 3 -27 9 -15 8 -18 -3 -11 -7 4 -5 -1 4 -12
16 -18 16 -22 2 -43 -13 -18 -18 -20 -32 -9 -10 8 -13 9 -9 1 4 -6 3 -14 -3
-18 -5 -3 -10 1 -10 9 0 9 -5 16 -11 16 -5 0 -7 -4 -4 -10 3 -5 2 -10 -3 -10
-16 0 -21 40 -7 54 8 7 11 16 8 20 -4 3 2 13 13 20 10 8 16 18 11 22 -4 4 -7
2 -7 -4 0 -7 -5 -12 -12 -12 -6 0 -3 8 7 20 18 20 41 18 29 -2z"/>
<path d="M3854 3256 c-3 -7 -16 -12 -29 -10 -14 1 -27 -2 -30 -6 -3 -5 -11 -7
-18 -5 -7 2 -24 6 -39 9 -21 4 -26 1 -21 -11 4 -11 2 -14 -5 -9 -7 4 -12 2
-12 -3 0 -6 3 -11 8 -11 4 0 7 -18 7 -40 0 -22 -2 -40 -5 -40 -3 0 -4 -39 -2
-86 3 -64 1 -84 -8 -79 -7 4 -4 -5 6 -21 11 -15 13 -25 7 -21 -16 10 -16 6 -3
-28 9 -24 8 -27 -7 -21 -15 5 -15 4 1 -9 11 -8 15 -15 8 -15 -8 0 -9 -11 -5
-31 4 -21 1 -34 -8 -40 -10 -6 -10 -9 -2 -9 7 0 12 -11 11 -25 -1 -14 -5 -25
-9 -25 -3 0 -6 -7 -6 -15 0 -12 3 -12 15 -2 13 10 14 9 3 -10 -6 -13 -9 -23
-5 -23 3 0 0 -8 -7 -17 -10 -11 -10 -14 -1 -9 6 4 12 3 12 -3 0 -5 -4 -12 -9
-15 -10 -7 -9 -25 1 -41 4 -6 3 -17 -1 -24 -5 -7 -5 -28 -1 -47 4 -18 5 -36 1
-40 -3 -4 0 -4 7 0 7 4 12 2 13 -6 0 -7 4 -4 9 7 5 11 9 14 9 8 1 -9 8 -10 24
-5 12 5 52 8 89 8 53 -1 64 2 56 12 -9 10 -6 11 16 2 18 -6 25 -6 21 0 -3 6
-1 10 6 10 9 0 9 3 0 14 -7 8 -8 17 -3 20 4 3 8 22 7 43 -1 21 2 46 7 55 5 10
4 19 -2 23 -7 4 -7 13 0 26 7 11 7 19 1 19 -5 0 -8 8 -6 18 1 9 8 16 16 14 10
-3 10 0 -1 12 -7 9 -9 16 -4 16 4 0 3 5 -3 11 -8 8 -7 18 2 35 8 17 10 37 5
60 -4 18 -5 34 -1 34 3 0 6 34 6 75 0 43 4 75 10 75 6 0 3 5 -5 10 -13 9 -13
10 0 10 9 0 11 3 5 8 -9 6 -12 26 -6 35 10 11 8 47 -2 47 -8 0 -8 3 2 9 8 5
12 19 9 35 -3 14 0 27 6 30 7 3 6 5 -2 5 -7 1 -11 5 -8 10 4 5 -2 8 -11 6 -10
-2 -18 -4 -18 -5 0 -1 -15 -3 -32 -4 -22 -3 -31 0 -26 8 3 6 0 6 -8 -1 -16
-15 -33 -17 -24 -3 3 6 4 10 0 10 -3 0 -8 -6 -11 -14z"/>
<path d="M1655 3100 c3 -5 8 -10 11 -10 2 0 4 5 4 10 0 6 -5 10 -11 10 -5 0
-7 -4 -4 -10z"/>
<path d="M3325 1373 c-11 -3 -26 -10 -34 -17 -12 -9 -13 -8 -7 2 7 11 4 12
-12 3 -21 -11 -41 -47 -19 -36 6 4 5 1 -4 -7 -9 -7 -15 -21 -13 -30 1 -10 -3
-18 -9 -18 -8 0 -7 -3 1 -9 10 -6 0 -12 -32 -22 -25 -7 -46 -17 -46 -21 0 -4
-5 -8 -11 -8 -5 0 -7 5 -3 11 3 6 -5 3 -20 -6 -14 -10 -26 -13 -26 -9 0 5 -5
2 -10 -6 -7 -11 -10 -11 -10 -2 0 9 -5 10 -19 2 -26 -13 -34 -13 -26 3 4 6 1
5 -7 -3 -8 -9 -28 -15 -51 -14 -21 1 -40 -3 -43 -8 -3 -4 -10 -5 -16 -2 -10 6
-70 16 -115 18 -11 0 -19 5 -15 10 3 5 -2 7 -11 3 -8 -3 -21 0 -27 8 -6 7 -19
14 -28 14 -41 1 -50 5 -45 18 3 7 -2 16 -11 19 -9 3 -14 9 -11 14 7 11 -37 28
-65 23 -13 -2 -29 -9 -35 -15 -7 -8 -6 -9 5 -3 13 8 13 6 1 -8 -7 -9 -17 -15
-21 -12 -11 7 -7 -29 5 -37 6 -5 5 -8 -2 -8 -8 0 -5 -8 7 -20 12 -12 18 -26
14 -32 -4 -7 -3 -8 5 -4 6 4 8 13 4 19 -4 7 0 6 10 -2 17 -13 25 -67 9 -57 -5
3 -9 -8 -10 -25 0 -19 3 -27 10 -23 7 5 9 1 5 -9 -4 -11 -1 -17 8 -17 8 0 15
-4 15 -9 0 -5 14 -11 30 -13 17 -3 30 0 30 5 0 5 7 6 15 3 11 -4 19 3 25 20 5
13 9 28 9 32 -3 19 2 25 11 12 7 -11 10 -11 10 -2 0 10 5 10 21 1 16 -8 20 -8
14 1 -5 9 -3 9 11 2 11 -5 25 -7 33 -4 8 2 11 0 8 -6 -4 -5 2 -12 13 -15 13
-3 18 -1 13 6 -3 7 3 3 15 -7 17 -14 22 -16 22 -5 0 12 2 12 9 0 6 -10 10 -10
16 -1 5 8 10 9 14 2 9 -15 89 -21 95 -8 2 6 5 3 5 -7 1 -14 5 -16 20 -7 13 6
22 7 26 0 3 -5 15 -6 28 -1 14 6 30 5 41 -1 15 -8 17 -8 11 2 -6 10 -4 12 7 7
9 -3 21 0 28 6 10 9 11 9 6 0 -4 -7 -3 -13 3 -13 5 0 11 5 13 11 2 6 16 12 31
12 15 0 24 3 22 7 -6 10 15 8 32 -3 6 -4 14 -1 17 5 4 9 5 8 4 -2 -1 -8 2 -23
7 -33 6 -15 10 -16 16 -5 7 10 9 8 9 -6 0 -13 5 -16 17 -12 10 4 14 4 10 0
-14 -14 26 -32 55 -23 15 4 28 5 28 1 0 -4 5 0 10 8 5 8 15 15 22 15 7 1 12 6
11 13 -2 7 1 12 6 12 5 0 7 19 5 43 -4 41 -32 76 -61 77 -6 0 -15 5 -19 12 -5
7 -3 8 7 3 12 -8 12 -6 0 8 -7 9 -9 17 -3 17 5 0 13 7 16 16 4 10 2 13 -6 8
-7 -5 -8 -3 -2 7 13 22 4 60 -22 95 -21 27 -30 31 -56 27 -20 -3 -28 -1 -23 6
3 6 5 10 3 10 -2 -1 -12 -4 -23 -6z"/>
<path d="M1575 1350 c3 -5 8 -10 11 -10 2 0 4 5 4 10 0 6 -5 10 -11 10 -5 0
-7 -4 -4 -10z"/>
<path d="M1695 1250 c3 -5 8 -10 11 -10 2 0 4 5 4 10 0 6 -5 10 -11 10 -5 0
-7 -4 -4 -10z"/>
<path d="M3430 710 c0 -5 5 -10 11 -10 5 0 7 5 4 10 -3 6 -8 10 -11 10 -2 0
-4 -4 -4 -10z"/>
</g>
</svg>
